<?xml version="1.0" standalone="no"?>
<!DOCTYPE svg PUBLIC "-//W3C//DTD SVG 1.1//EN" "http://www.w3.org/Graphics/SVG/1.1/DTD/svg11.dtd" >
<svg xmlns="http://www.w3.org/2000/svg">
<metadata>Generated by IcoMoon</metadata>
<defs>
<font id="icomoon" horiz-adv-x="1024">
<font-face units-per-em="1024" ascent="960" descent="-64" />
<missing-glyph horiz-adv-x="1024" />
<glyph unicode="&#x20;" horiz-adv-x="512" d="" />
<glyph unicode="&#xe900;" glyph-name="award" d="M787.2-57.6c-185.6 0-368 0-553.6 0-9.6 6.4-19.2 9.6-22.4 22.4-3.2 19.2 6.4 32 32 38.4 0 6.4 0 9.6 0 16 0 16 0 35.2 3.2 51.2 9.6 54.4 51.2 89.6 105.6 89.6 16 0 32 0 51.2 0 0 3.2 0 3.2 0 6.4 0 41.6 0 80 0 121.6 0 3.2-3.2 6.4-6.4 9.6-19.2 16-35.2 28.8-54.4 44.8-3.2 3.2-9.6 6.4-12.8 6.4-60.8 6.4-112 32-156.8 70.4-64 54.4-102.4 124.8-131.2 204.8-16 48-28.8 96-32 144 0 16 0 35.2-3.2 51.2 0 12.8 0 25.6 0 38.4 6.4 16 22.4 22.4 38.4 22.4 35.2 0 73.6 0 108.8 0 3.2 0 6.4 0 9.6 0 0 12.8 0 22.4 0 35.2 0 19.2 6.4 32 22.4 38.4 214.4 0 432 0 646.4 0 19.2-6.4 25.6-22.4 22.4-38.4 0-9.6 0-22.4 0-32 3.2 0 6.4 0 9.6 0 35.2 0 73.6 0 108.8 0 19.2 0 32-6.4 38.4-22.4 0-12.8 0-25.6 0-38.4 0-3.2 0-6.4 0-9.6-3.2-25.6-3.2-51.2-9.6-76.8-16-112-57.6-211.2-134.4-294.4-48-51.2-105.6-86.4-176-92.8-6.4 0-12.8-3.2-16-6.4-16-12.8-35.2-28.8-51.2-41.6-3.2-3.2-6.4-6.4-6.4-12.8 0-35.2 0-70.4 0-108.8 0-6.4 0-9.6 0-16 19.2 0 38.4 0 57.6 0 54.4-3.2 99.2-44.8 102.4-99.2 0-19.2 0-38.4 0-57.6 22.4-3.2 32-12.8 32-28.8 3.2-19.2-6.4-28.8-22.4-35.2zM227.2 892.8c0-3.2 0-6.4 0-9.6 0-64 9.6-124.8 19.2-185.6 16-80 41.6-160 80-233.6 25.6-44.8 54.4-86.4 99.2-115.2 48-32 96-41.6 147.2-16 32 16 57.6 38.4 80 67.2 41.6 54.4 70.4 115.2 92.8 179.2 32 89.6 44.8 185.6 51.2 278.4 0 12.8 0 22.4 0 35.2-188.8 0-380.8 0-569.6 0zM720 3.2c0 16 0 28.8 0 44.8 0 35.2-25.6 54.4-54.4 54.4-73.6 0-147.2 0-220.8 0-32 0-60.8 0-92.8 0-22.4 0-41.6-16-44.8-38.4-3.2-19.2 0-41.6 0-60.8 134.4 0 275.2 0 412.8 0zM169.6 819.2c-35.2 0-67.2 0-102.4 0 0-19.2 3.2-35.2 3.2-54.4 9.6-70.4 28.8-137.6 60.8-198.4 28.8-51.2 64-96 112-128 12.8-6.4 25.6-12.8 38.4-19.2-67.2 124.8-99.2 259.2-112 400zM956.8 819.2c-35.2 0-67.2 0-102.4 0-12.8-140.8-44.8-278.4-115.2-403.2 28.8 9.6 54.4 25.6 73.6 44.8 48 41.6 80 96 102.4 153.6 25.6 67.2 38.4 134.4 41.6 204.8zM560 265.6c-32-9.6-64-9.6-99.2 0 0-35.2 0-70.4 0-105.6 32 0 64 0 99.2 0 0 35.2 0 70.4 0 105.6z" />
<glyph unicode="&#xe901;" glyph-name="decoration" d="M323.2-67.2c-3.2 0-9.6 0-12.8 0-16 6.4-22.4 19.2-22.4 38.4 0 76.8 0 156.8 0 233.6 0 6.4-3.2 12.8-9.6 16-86.4 64-137.6 144-160 249.6-3.2 16-6.4 35.2-6.4 51.2s0 28.8 0 44.8c0 3.2 3.2 6.4 3.2 9.6 3.2 48 12.8 89.6 32 134.4 22.4 51.2 57.6 96 99.2 134.4 54.4 48 115.2 76.8 185.6 92.8 16 3.2 32 6.4 51.2 6.4s38.4 0 54.4 0c3.2 0 6.4 0 6.4-3.2 44.8-3.2 86.4-16 128-35.2 51.2-22.4 99.2-57.6 134.4-102.4 48-54.4 76.8-115.2 92.8-185.6 3.2-16 6.4-35.2 6.4-54.4 0-16 0-28.8 0-44.8-3.2-16-3.2-32-6.4-48-19.2-105.6-73.6-192-160-252.8-6.4-3.2-6.4-9.6-6.4-16 0-76.8 0-156.8 0-233.6 0-19.2-6.4-32-22.4-38.4-3.2 0-9.6 0-12.8 0-60.8 28.8-121.6 54.4-182.4 83.2-3.2 0-6.4 0-9.6 0-60.8-25.6-121.6-54.4-182.4-80zM512 886.4c-185.6 0-339.2-150.4-339.2-339.2 0-185.6 150.4-339.2 339.2-342.4 188.8 0 342.4 150.4 342.4 339.2s-153.6 342.4-342.4 342.4zM678.4 6.4c0 57.6 0 115.2 0 176-112-48-220.8-48-329.6 0 0-57.6 0-115.2 0-176 3.2 3.2 9.6 3.2 12.8 3.2 44.8 19.2 89.6 41.6 137.6 60.8 12.8 6.4 22.4 6.4 35.2 0 19.2-9.6 41.6-19.2 60.8-28.8 22.4-9.6 51.2-22.4 83.2-35.2zM745.6 662.4c-3.2-6.4-3.2-12.8-6.4-16-16-28.8-32-60.8-48-89.6-3.2-6.4-3.2-9.6 0-16 16-28.8 32-60.8 48-89.6 12.8-25.6 0-48-28.8-48-35.2 0-67.2-3.2-102.4-3.2-6.4 0-9.6-3.2-12.8-9.6-16-28.8-35.2-57.6-51.2-83.2-16-28.8-41.6-28.8-57.6 0s-35.2 57.6-51.2 83.2c-3.2 6.4-6.4 6.4-12.8 6.4-32 0-60.8 3.2-92.8 3.2-3.2 0-9.6 0-12.8 0-25.6 3.2-38.4 22.4-25.6 48s28.8 54.4 44.8 80c6.4 12.8 9.6 22.4 0 38.4-16 25.6-28.8 54.4-44.8 80-12.8 25.6 0 44.8 28.8 48 35.2 0 70.4 3.2 105.6 3.2 3.2 0 9.6 3.2 9.6 6.4 19.2 28.8 35.2 57.6 54.4 86.4 16 25.6 38.4 25.6 54.4 0 19.2-28.8 35.2-57.6 54.4-86.4 3.2-3.2 6.4-6.4 12.8-6.4 35.2-3.2 70.4-3.2 108.8-3.2 9.6-3.2 22.4-16 25.6-32zM512 723.2c-16-22.4-28.8-44.8-41.6-67.2-6.4-12.8-16-19.2-32-19.2-19.2 0-38.4 0-57.6-3.2-6.4 0-12.8 0-22.4 0 12.8-22.4 22.4-44.8 35.2-67.2 9.6-12.8 9.6-25.6 0-41.6-12.8-19.2-22.4-38.4-32-60.8 0-3.2-3.2-6.4-6.4-12.8 28.8 0 54.4 0 80 0 16 0 25.6-6.4 35.2-19.2 9.6-16 19.2-28.8 28.8-44.8 3.2-6.4 9.6-12.8 12.8-22.4 12.8 22.4 25.6 41.6 38.4 60.8 9.6 19.2 25.6 25.6 48 25.6s44.8 0 70.4 3.2c-3.2 3.2-3.2 6.4-3.2 9.6-9.6 22.4-22.4 41.6-32 64-6.4 12.8-6.4 22.4 0 35.2s16 28.8 22.4 41.6c6.4 9.6 9.6 19.2 16 28.8-28.8 0-54.4 3.2-80 3.2-16 0-25.6 6.4-35.2 22.4-16 19.2-32 41.6-44.8 64z" />
<glyph unicode="&#xe902;" glyph-name="marriage" d="M32 300.8c6.4 19.2 6.4 41.6 16 57.6 32 76.8 89.6 124.8 169.6 137.6 16 3.2 28.8 3.2 44.8 3.2 57.6 0 112 0 169.6 0 32 0 64-6.4 92.8-19.2 38.4-16 67.2-41.6 92.8-76.8 3.2-6.4 9.6-6.4 16-6.4s12.8 0 19.2 0c67.2 0 131.2 0 198.4 0 44.8 0 80-16 108.8-48 19.2-19.2 28.8-44.8 35.2-73.6 0-3.2 0-3.2 3.2-6.4 0-80 0-160 0-240-6.4-16-19.2-22.4-38.4-22.4-294.4 0-592 0-886.4 0-16 0-28.8 3.2-38.4 22.4-3.2 96-3.2 182.4-3.2 272zM566.4 380.8c-3.2 3.2-3.2 6.4-6.4 9.6-32 38.4-76.8 54.4-124.8 57.6-60.8 0-121.6 0-182.4 0-92.8 0-166.4-73.6-166.4-166.4 0-64 0-131.2 0-195.2 0-3.2 0-6.4 0-9.6 137.6 0 275.2 0 412.8 0 0 3.2 0 6.4 0 9.6 0 57.6 0 115.2 0 172.8 0 16 3.2 32 6.4 48 9.6 28.8 32 54.4 60.8 73.6zM937.6 70.4c0 3.2 0 3.2 0 6.4 0 60.8 0 121.6 0 182.4 0 6.4 0 16-3.2 22.4-9.6 41.6-41.6 64-86.4 64-67.2 0-134.4 0-201.6 0-12.8 0-28.8-3.2-41.6-9.6-32-16-48-44.8-48-80 0-57.6 0-118.4 0-176 0-3.2 0-6.4 0-9.6 124.8 0 252.8 0 380.8 0zM352 531.2c-99.2 0-179.2 80-179.2 179.2 3.2 99.2 83.2 179.2 179.2 179.2 99.2 0 179.2-83.2 179.2-179.2 0-99.2-80-179.2-179.2-179.2zM352 588.8c67.2 0 121.6 54.4 124.8 121.6 0 67.2-54.4 121.6-121.6 124.8-67.2 0-124.8-57.6-124.8-124.8s54.4-121.6 121.6-121.6zM755.2 726.4c80 0 144-64 144-144s-64-144-144-144c-80 0-144 64-144 144s64 144 144 144zM755.2 668.8c-48 0-86.4-38.4-86.4-86.4s38.4-86.4 86.4-86.4c51.2 0 86.4 38.4 86.4 86.4 3.2 48-38.4 86.4-86.4 86.4z" />
<glyph unicode="&#xe903;" glyph-name="medical" d="M908.8 745.6h-198.4v99.2c0 54.4-44.8 99.2-99.2 99.2h-198.4c-54.4 0-99.2-44.8-99.2-99.2v-99.2h-198.4c-54.4 0-99.2-44.8-99.2-99.2v-595.2c0-54.4 44.8-99.2 99.2-99.2h790.4c54.4 0 99.2 44.8 99.2 99.2v595.2c3.2 54.4-41.6 99.2-96 99.2zM412.8 844.8h198.4v-99.2h-198.4v99.2zM908.8 51.2h-793.6v595.2h790.4v-595.2zM560 547.2h-96v-147.2h-150.4v-99.2h150.4v-150.4h96v150.4h150.4v99.2h-150.4z" />
<glyph unicode="&#xe904;" glyph-name="qualification" d="M1014.4 665.6c-6.4-12.8-16-19.2-28.8-22.4s-22.4-9.6-35.2-12.8c-6.4-3.2-6.4-3.2-6.4-9.6 0-92.8 0-182.4 0-275.2 0-3.2 3.2-6.4 3.2-9.6 35.2-16 54.4-44.8 54.4-86.4 0-38.4-22.4-64-57.6-80 0 0 0 0 0 0 0-35.2 0-73.6 0-108.8 0-12.8-3.2-22.4-16-28.8-9.6-6.4-19.2-3.2-28.8 0-9.6 6.4-12.8 16-12.8 25.6 0 35.2 0 67.2 0 102.4 0 6.4 0 9.6-6.4 9.6-32 16-51.2 41.6-51.2 80s16 64 51.2 83.2c3.2 3.2 9.6 3.2 9.6 9.6 0 83.2 0 169.6 0 252.8 0 0 0 3.2 0 6.4-6.4-3.2-12.8-3.2-22.4-6.4-16-6.4-32-12.8-48-16-6.4-3.2-9.6-6.4-9.6-12.8 0-57.6 0-115.2 0-172.8 0-25.6-9.6-44.8-32-60.8-32-22.4-67.2-32-102.4-41.6-70.4-16-140.8-22.4-211.2-16-64 3.2-128 16-188.8 41.6-16 6.4-32 19.2-44.8 32-12.8 9.6-12.8 25.6-12.8 38.4 0 57.6 0 118.4 0 176 0 9.6-3.2 9.6-9.6 12.8-57.6 19.2-112 41.6-169.6 60.8-16 9.6-25.6 16-28.8 28.8 0 3.2 0 9.6 0 12.8 6.4 12.8 16 19.2 28.8 22.4 150.4 54.4 304 108.8 457.6 163.2 12.8 3.2 22.4 3.2 32 0 153.6-54.4 307.2-108.8 460.8-163.2 12.8-3.2 22.4-9.6 25.6-22.4 0-3.2 0-9.6 0-12.8zM896 672c-3.2 3.2-6.4 3.2-9.6 3.2-121.6 41.6-243.2 86.4-364.8 128-6.4 3.2-12.8 3.2-19.2 0-99.2-35.2-198.4-70.4-297.6-105.6-25.6-6.4-51.2-16-76.8-25.6 3.2-3.2 6.4-3.2 9.6-3.2 121.6-41.6 243.2-86.4 361.6-128 6.4-3.2 12.8-3.2 22.4 0 89.6 32 179.2 64 268.8 96 35.2 9.6 70.4 22.4 105.6 35.2zM275.2 556.8c0-6.4 0-9.6 0-12.8 0-44.8 0-89.6 0-134.4 0-19.2 6.4-28.8 22.4-35.2 48-22.4 96-32 147.2-35.2 67.2-6.4 131.2-3.2 198.4 9.6 35.2 6.4 67.2 16 96 35.2 6.4 3.2 9.6 9.6 9.6 16 0 48 0 96 0 144 0 3.2 0 6.4 0 12.8-3.2 0-9.6-3.2-12.8-3.2-70.4-25.6-140.8-51.2-211.2-73.6-9.6-3.2-19.2-3.2-28.8 0-44.8 16-92.8 32-137.6 48-25.6 9.6-54.4 19.2-83.2 28.8zM886.4 252.8c0-16 12.8-28.8 28.8-28.8s28.8 12.8 28.8 28.8c0 16-12.8 28.8-28.8 28.8-16 3.2-28.8-9.6-28.8-28.8z" />
<glyph unicode="&#xe905;" glyph-name="service-details" d="M76.8-19.2c0 9.6 0 16 0 25.6 0 0 0 3.2 3.2 3.2 3.2 32 12.8 64 25.6 96 32 64 80 112 147.2 137.6 28.8 9.6 57.6 19.2 86.4 28.8 3.2 0 6.4 6.4 9.6 9.6 9.6 16 16 35.2 25.6 51.2 3.2 6.4 3.2 6.4 0 12.8-9.6 12.8-19.2 25.6-28.8 38.4-6.4 9.6-9.6 12.8-22.4 12.8-32 0-54.4 22.4-57.6 51.2 0 6.4 0 16 0 22.4 0 3.2-3.2 6.4-3.2 6.4-22.4 12.8-32 32-32 54.4 0 35.2 0 70.4 0 105.6 0 57.6 12.8 112 44.8 160 38.4 57.6 92.8 99.2 160 118.4 19.2 6.4 38.4 6.4 57.6 12.8 12.8 0 25.6 0 38.4 0s25.6 0 41.6-3.2c60.8-12.8 112-44.8 153.6-92.8 38.4-44.8 64-99.2 67.2-160 3.2-48 3.2-96 3.2-140.8 0-35.2-25.6-57.6-57.6-57.6-9.6 0-19.2 0-32 0 0-3.2 0-3.2-3.2-3.2 0 0 0-3.2 0-3.2-6.4-44.8-22.4-86.4-54.4-121.6-3.2-3.2-3.2-6.4 0-9.6 6.4-16 16-32 22.4-48 3.2-9.6 9.6-12.8 19.2-16 32-9.6 67.2-19.2 99.2-35.2 80-38.4 128-105.6 150.4-188.8 3.2-12.8 6.4-25.6 6.4-38.4 0-9.6 0-16 0-25.6-6.4-6.4-9.6-9.6-16-16-278.4 0-556.8 0-838.4 0-3.2 3.2-9.6 6.4-16 12.8zM380.8 396.8c6.4-9.6 12.8-19.2 22.4-25.6 41.6-41.6 89.6-57.6 147.2-41.6s92.8 54.4 108.8 112c9.6 41.6 12.8 86.4 19.2 131.2 3.2 12.8 3.2 25.6 3.2 38.4-19.2 3.2-35.2 6.4-51.2 9.6-57.6 12.8-112 38.4-156.8 80-3.2 0-6.4 3.2-9.6 3.2-19.2 0-35.2-6.4-54.4-16-28.8-16-44.8-41.6-64-67.2 0-3.2-3.2-6.4 0-9.6 3.2-38.4 6.4-73.6 9.6-112 3.2-22.4 6.4-44.8 9.6-67.2 19.2 0 35.2 0 51.2 0 3.2 0 6.4 3.2 6.4 6.4 9.6 19.2 22.4 28.8 44.8 32 19.2 3.2 35.2 3.2 54.4 0 28.8-3.2 51.2-28.8 48-57.6s-25.6-51.2-57.6-54.4c-9.6 0-19.2 0-28.8 0-28.8 0-51.2 9.6-64 38.4-9.6 0-22.4 0-38.4 0zM480 3.2c-51.2 73.6-102.4 147.2-128 233.6-25.6-9.6-48-16-70.4-22.4-67.2-19.2-112-64-140.8-124.8-12.8-28.8-22.4-57.6-22.4-86.4 118.4 0 236.8 0 361.6 0zM678.4 233.6c-19.2-41.6-38.4-80-60.8-118.4s-48-73.6-70.4-112c121.6 0 240 0 361.6 0 0 6.4 0 16-3.2 22.4-12.8 67.2-44.8 118.4-102.4 156.8-38.4 28.8-86.4 35.2-124.8 51.2zM681.6 649.6c0 0 0 0 0 0 6.4 70.4-32 131.2-96 156.8-28.8 12.8-60.8 12.8-92.8 9.6-67.2 0-124.8-44.8-144-108.8-3.2-6.4-3.2-16-6.4-25.6 3.2 0 3.2 0 3.2 3.2 0 0 3.2 3.2 3.2 3.2 32 35.2 70.4 51.2 115.2 54.4 9.6 0 19.2-3.2 25.6-9.6 54.4-51.2 118.4-76.8 192-83.2zM755.2 665.6c-6.4 118.4-112 230.4-249.6 224-140.8-3.2-233.6-121.6-236.8-224 12.8 0 22.4 0 35.2 0 0 12.8 3.2 22.4 3.2 32 16 73.6 60.8 124.8 134.4 147.2 32 9.6 64 9.6 96 6.4 80-6.4 137.6-48 166.4-121.6 6.4-19.2 9.6-41.6 16-64 12.8 0 22.4 0 35.2 0zM512 22.4c0 0 0 0 0 0 22.4 32 44.8 67.2 67.2 99.2 3.2 6.4 3.2 6.4-3.2 9.6-16 12.8-28.8 28.8-44.8 44.8-6.4 6.4-12.8 16-22.4 22.4-22.4-22.4-44.8-44.8-64-67.2 0 0 0-6.4 0-9.6 22.4-35.2 44.8-67.2 67.2-99.2-3.2 0 0 0 0 0zM601.6 163.2c0 0 0 0 0 0 12.8 32 28.8 60.8 41.6 92.8 0 0 0 3.2 0 6.4-6.4 16-16 32-25.6 48-28.8-28.8-54.4-57.6-80-83.2 22.4-22.4 41.6-44.8 64-64zM422.4 160c22.4 22.4 41.6 44.8 60.8 64-25.6 25.6-51.2 51.2-80 80-6.4-12.8-12.8-25.6-19.2-38.4 0-3.2 0-3.2 0-6.4 12.8-35.2 25.6-67.2 38.4-99.2zM720 627.2c-3.2-38.4-6.4-80-9.6-118.4 9.6 0 16 0 22.4 0 16 0 22.4 6.4 22.4 25.6 0 28.8 0 57.6 0 86.4 0 3.2 0 6.4 0 6.4-12.8 0-22.4 0-35.2 0zM313.6 508.8c-3.2 41.6-6.4 80-9.6 118.4-12.8 0-25.6 0-38.4 0 0-35.2 0-67.2 0-99.2 0-9.6 6.4-16 19.2-16 9.6-3.2 19.2-3.2 28.8-3.2zM492.8 396.8c6.4 0 12.8 0 19.2 0 12.8 0 19.2 9.6 19.2 19.2s-9.6 19.2-19.2 19.2c-12.8 0-25.6 0-35.2 0-12.8 0-19.2-9.6-19.2-19.2s9.6-19.2 19.2-19.2c3.2 0 9.6 0 16 0zM512 252.8c9.6 9.6 19.2 22.4 28.8 32-12.8 0-22.4 0-32 0s-22.4 3.2-32 3.2c9.6-12.8 22.4-22.4 35.2-35.2zM326.4 435.2c-3.2 12.8-3.2 25.6-6.4 35.2-6.4 0-9.6 0-12.8 0-6.4-22.4 0-35.2 19.2-35.2z" />
<glyph unicode="&#xe906;" glyph-name="service" d="M350 941c-26.4-5.8-47-16-72.2-35.2-8.8-6.6-19.2-13.2-23.4-14.6-27.8-9.8-50-30.8-60.4-57-11.6-29.8-9.6-55.4 7-89.8 6-12.6 11-23 11-23.6 0-0.4-3.8-0.8-8.4-0.8-16.4-0.2-33.8-12.4-40.4-28.4-4-9.6-4-29.6 0-39.2 7.6-18.4 23.8-28.2 46.4-28.4h14.4v-11.6c0-17 6.6-40.8 17.2-62 10.8-21.4 31.8-45.4 51.2-58.6l11.6-8v-37.2l-99.4-16.6c-54.8-9-105-18.2-111.6-20.2-35-10.8-64.8-41.6-74-76.8-2.6-10.2-3-36.8-3-192.4 0-178 0-180.6 4-184.6s6.6-4 485.4-4c477 0 481.6 0 488.2 4 3.6 2.2 8.2 6.8 10.4 10.4 3.8 6.4 4 10.4 4 177.6s-0.2 171.2-4 177.6c-2.2 3.6-6.8 8.2-10.4 10.4-6.2 3.8-10.2 4-60 4h-53.6v30.6c0 34.2-2 41.2-14.2 52.8-13.4 12.8-12.2 12.6-113.8 12.6-98.4 0-100.6-0.2-111.2-10.2-4.2-4-4.2-3.8-90.4 10.4l-86.4 14.4v37.2l11.6 8c13.4 9.2 33.2 29.2 42.2 42.8 15 22.2 26.2 55.4 26.2 77.8v11.6h14.6c30.6 0.2 49.4 18.6 49.4 48.4-0.2 27-19.6 47.6-45 47.6-5 0-9 0.4-9 0.8s2.6 6.4 5.8 13.4c9.6 21.6 12.8 38.8 11.6 63.2-1 25-5.6 41.4-16.8 60.4-9.2 15.8-26 33.2-40.6 42.6-14 9-67 33-84 38-17.4 5.4-61.6 6.8-80 2.6zM415 907c6.6-1.8 27-10 45.4-18.2 28.2-12.8 35.4-17 46.2-26.8 13.6-12.6 24-29.4 28.6-46.8 3.8-14 3.4-37.8-1-51.2l-3.4-11-11.4 22.2c-6.2 12.2-12.6 22.8-14.4 23.6-9.4 3.6-16.2 1.2-35-12.8-33-24.2-54-32-86-32-31.8 0-53.2 8-86 32-19.2 14.2-27 16.8-35.6 12.2-1.8-1-8.4-11.8-14.4-24s-11.4-22.2-12.2-22.2c-2.2 0-11.8 23.4-14 34.4-4.2 21.2 6.6 47.8 25.2 62 14 10.6 26 14.2 44.6 13.2 24.2-1.2 42-11.2 58.4-33.2l5-6.6 13.6 9.2c7.4 5 13.4 9.6 13.4 10.2 0 3.2-13.4 19.8-23 28.2-10.4 9.4-20.6 15.4-34 20.6l-6 2.4 9.8 5c23 11.8 61.2 16 86.2 9.6zM313 735.8c23.4-11.4 42.8-15.8 71-15.8 36.2 0 69.4 10.4 95.4 30.2l10.6 7.8 11.2-22.4 11.4-22.6-1.2-54c-0.8-41.6-1.8-56.8-4.4-66-29-105-163.6-129.6-226.4-41.4-20 27.8-24.6 50.4-24.6 121v41.4l11 22 11 22.2 9.6-7.2c5-4 16.6-10.8 25.4-15.2zM224 672v-16h-7c-10.8 0-20.6 4.8-22.2 10.8-3.2 12.8 5.2 21 21.8 21.2h7.4v-16zM565 685.2c7.4-3.2 10.4-9.6 8.2-18.4-1.6-6-11.4-10.8-22.2-10.8h-7v32h7c4 0 10.2-1.2 14-2.8zM352 466.2c17.8-4 58.6-2.4 76.6 3 3 1 3.4-0.6 3.4-13.6v-14.6l-48-48-48 48v14.6c0 13 0.4 14.6 3.6 13.6 1.8-0.6 7.4-2 12.4-3zM322.6 404.4l9.4-9.6-6-17.8c-8.8-26-8.4-28 8.4-53.4l14.2-21.8-14.2-36c-8-19.8-14.4-38.8-14.4-42.4 0-6.2 43.6-198.8 48.2-213 2.4-7.4 7-10.4 15.8-10.4s13.4 3 15.8 10.4c4.6 14.2 48.2 206.8 48.2 213 0 3.6-6.4 22.6-14.4 42.4l-14.2 36 14.2 21.8c16.8 25.4 17.2 27.4 8.4 53.4l-6 18 19 18.6 84.6-14 84.4-14.2v-49.4h-53.4c-50 0-54-0.2-60.2-4-3.6-2.2-8.2-6.8-10.4-10.4-3.8-6.4-4-10.4-4-172v-165.6h-288v272h-32v-272h-128v156.6c0.2 86 1 162.4 1.8 169.8 2.4 17.8 11.2 36.2 23.4 48.2 17.8 17.6 20 18.2 134.4 37.6 57 9.6 103.8 17.4 104.4 17.6s5.4-4.2 10.6-9.4zM836.8 397.2c9-3.8 11.2-11 11.2-38.6v-22.6l-50.2 0.4-50.2 0.6-4 10c-7.2 18.6-26.6 41.6-42.6 50.6-6.4 3.6 127 3.4 135.8-0.4zM675.6 372.2c4.6-2.2 11.6-7.2 15.6-10.8 7.8-6.6 18.8-20.6 18.8-23.8 0-0.8-12.2-1.6-27-1.6h-27v43.8l5.6-1.6c3-1 9.2-3.6 14-6zM368.2 359c6.2-5.6 9.4-7 15.8-7s9.6 1.4 15.8 7c4.2 3.8 8.2 7 8.8 7s1.6-2.8 2.4-6.2c1.2-5.2-0.2-8.6-9.8-23-10-14.8-12-16.8-17.2-16.8s-7.2 2-17.2 16.8c-9.6 14.4-11 17.8-9.8 23 0.8 3.4 1.8 6.2 2.4 6.2s4.6-3.2 8.8-7zM976 282.6c-0.2-43.6-6-62.8-24.8-81.8-21.2-21.2-36.4-24.8-105.6-24.8h-45.6v28c0 38.4 3.2 36-48 36s-48 2.4-48-36v-28h-45.4c-69.4 0-84.6 3.6-105.8 24.8-18.8 19-24.6 38.2-24.8 81.8v21.4h448v-21.4zM401.2 255l12.8-32-14.4-63.4c-8-35-15-63.6-15.6-63.6s-7.6 28.6-15.6 63.6l-14.4 63.4 11.2 28c6.2 15.4 12 30 13 32.6 1.2 3.2 3.2 4.4 6 4 3.4-0.4 6.6-6.8 17-32.6zM768 169c0-43.6-1.6-51.8-10.8-54.2-8.8-2.2-15.2 0.8-18.4 8.2-2 5.2-2.8 16.6-2.8 46v39h32v-39zM555.4 156.2c23-11.6 28-12.2 91-12.2h57.6v-14.4c0.2-30.8 18.6-49.6 48.4-49.6 14.8 0 25.8 4.6 35 14.2 9.2 9.8 12.6 19.4 12.6 35.8v14h57.6c47.2 0 59.6 0.6 68.6 3.2 15.2 4.6 32.6 13.6 41.8 22l8 7.2v-128.4h-448v128.4l8-7.2c4.4-3.8 13-9.8 19.4-13zM976 0v-16h-448v32h448v-16z" />
<glyph unicode="&#xe907;" glyph-name="skill" d="M995.2 780.8c0-6.4 0-16 0-22.4-3.2-19.2-12.8-32-25.6-44.8-96-96-192-192-288-288-3.2-3.2-6.4-6.4-6.4-9.6 22.4-22.4 44.8-44.8 67.2-64 3.2-3.2 6.4-3.2 9.6-3.2 25.6 6.4 51.2 9.6 76.8 6.4 76.8-9.6 144-67.2 163.2-140.8 3.2-12.8 6.4-28.8 6.4-41.6 0-6.4 0-16 0-22.4 0-3.2 0-3.2-3.2-6.4-3.2-19.2-6.4-38.4-12.8-57.6s-22.4-22.4-35.2-6.4c-22.4 22.4-48 48-70.4 70.4-6.4 6.4-9.6 12.8-16 16-22.4-22.4-41.6-41.6-64-64 12.8-12.8 25.6-25.6 38.4-38.4 16-16 32-32 48-48 12.8-12.8 9.6-25.6-6.4-35.2-3.2 0-6.4-3.2-9.6-3.2-16-3.2-32-6.4-48-12.8-12.8 0-25.6 0-38.4 0-6.4 3.2-16 3.2-22.4 6.4-108.8 25.6-172.8 131.2-147.2 243.2 0 3.2 0 9.6-3.2 9.6-19.2 19.2-38.4 38.4-60.8 60.8 0 0-3.2 3.2-6.4 3.2-3.2-3.2-6.4-3.2-6.4-6.4-73.6-73.6-144-144-217.6-217.6-6.4-6.4-12.8-9.6-19.2-12.8-80-25.6-156.8-51.2-236.8-80-9.6-3.2-16-3.2-25.6 3.2-6.4 6.4-3.2 12.8-3.2 22.4 25.6 80 51.2 156.8 80 236.8 3.2 6.4 6.4 16 12.8 19.2 73.6 73.6 144 144 217.6 217.6 3.2 3.2 6.4 3.2 9.6 6.4-25.6 25.6-48 48-67.2 67.2-3.2 3.2-6.4 3.2-9.6 0-16-3.2-28.8-6.4-44.8-6.4-86.4-3.2-160 48-192 128-3.2 19.2-6.4 35.2-9.6 51.2 0 12.8 0 25.6 0 38.4 0 3.2 0 3.2 3.2 6.4 3.2 16 9.6 35.2 12.8 51.2s19.2 19.2 32 6.4c6.4-6.4 16-16 22.4-22.4 22.4-22.4 41.6-44.8 64-64 22.4 22.4 41.6 41.6 64 64 0 0-3.2 3.2-3.2 3.2-28.8 28.8-57.6 54.4-83.2 83.2-12.8 12.8-9.6 25.6 6.4 32 6.4 3.2 12.8 6.4 19.2 6.4 12.8 6.4 28.8 6.4 44.8 9.6 6.4 0 16 0 22.4 0 9.6 0 19.2-3.2 28.8-3.2 112-25.6 176-131.2 150.4-243.2 0-3.2 0-9.6 3.2-12.8 19.2-19.2 38.4-38.4 57.6-57.6 3.2-3.2 3.2-3.2 6.4-6.4 3.2 3.2 3.2 6.4 6.4 9.6 92.8 92.8 185.6 185.6 278.4 281.6 16 16 32 28.8 54.4 35.2 6.4 0 16 0 22.4 0 25.6-6.4 41.6-22.4 57.6-38.4 19.2-22.4 41.6-41.6 60.8-60.8 16-16 32-32 35.2-54.4zM803.2 713.6c-3.2-3.2-3.2-6.4-6.4-9.6-80-80-160-160-240-240-3.2-3.2-6.4-6.4-9.6-9.6-9.6-6.4-19.2-6.4-25.6 0s-6.4 16 0 25.6c3.2 3.2 3.2 6.4 6.4 6.4 80 80 160 160 240 240 3.2 3.2 6.4 3.2 9.6 6.4-19.2 19.2-38.4 38.4-57.6 57.6-185.6-182.4-371.2-368-560-556.8 19.2-19.2 35.2-35.2 57.6-57.6 3.2 3.2 3.2 6.4 6.4 6.4 57.6 57.6 115.2 115.2 172.8 172.8 3.2 3.2 6.4 6.4 9.6 6.4 6.4 0 12.8 3.2 19.2 0 3.2-3.2 9.6-9.6 9.6-16s-3.2-12.8-9.6-16c-44.8-48-92.8-92.8-137.6-137.6-12.8-12.8-28.8-28.8-41.6-41.6 19.2-19.2 38.4-38.4 54.4-54.4 182.4 188.8 371.2 374.4 556.8 563.2-16 16-35.2 35.2-54.4 54.4zM454.4 582.4c-3.2 3.2-6.4 3.2-9.6 6.4-22.4 22.4-44.8 44.8-67.2 64-9.6 6.4-9.6 16-6.4 28.8s6.4 25.6 9.6 41.6c6.4 89.6-60.8 166.4-150.4 169.6-12.8 3.2-28.8 0-41.6 0 0 0 0-3.2 0-3.2 0-3.2 3.2-6.4 6.4-9.6 22.4-22.4 48-48 70.4-70.4 12.8-12.8 12.8-22.4 0-32-28.8-28.8-57.6-54.4-83.2-83.2-12.8-12.8-22.4-12.8-32 0-25.6 22.4-48 44.8-73.6 70.4 0 3.2-3.2 3.2-6.4 6.4-6.4-22.4-6.4-44.8-3.2-67.2 19.2-96 115.2-147.2 208-118.4 12.8 3.2 22.4 3.2 28.8-6.4 19.2-19.2 38.4-38.4 57.6-57.6 6.4-6.4 9.6-9.6 12.8-16 28.8 25.6 51.2 51.2 80 76.8zM569.6 313.6c22.4-22.4 48-48 70.4-70.4 9.6-9.6 12.8-19.2 6.4-32-28.8-83.2 19.2-176 105.6-201.6 25.6-9.6 54.4-9.6 80-3.2-3.2 3.2-6.4 6.4-6.4 6.4-22.4 22.4-48 48-70.4 70.4-12.8 12.8-12.8 22.4 0 35.2 28.8 28.8 54.4 54.4 83.2 83.2 12.8 12.8 22.4 12.8 32 0 25.6-25.6 48-48 73.6-73.6 3.2-3.2 3.2-3.2 6.4-6.4 6.4 19.2 6.4 38.4 3.2 60.8-16 96-115.2 156.8-208 124.8-12.8-3.2-22.4-3.2-32 6.4-22.4 22.4-41.6 44.8-64 64-3.2 3.2-6.4 3.2-6.4 6.4-22.4-22.4-48-48-73.6-70.4zM748.8 825.6c48-48 92.8-92.8 137.6-137.6 19.2 19.2 41.6 41.6 64 64 12.8 12.8 9.6 32 0 44.8-32 32-60.8 60.8-92.8 92.8-12.8 12.8-32 12.8-48 0-19.2-25.6-41.6-44.8-60.8-64zM259.2 76.8c-41.6 41.6-80 80-121.6 121.6-3.2-19.2-9.6-38.4-16-54.4 0-3.2 0-6.4 3.2-6.4 25.6-25.6 48-51.2 73.6-73.6 3.2-3.2 6.4-3.2 6.4-3.2 19.2 3.2 38.4 9.6 54.4 16zM80 16c28.8 9.6 54.4 19.2 80 25.6-19.2 19.2-35.2 35.2-54.4 54.4-6.4-25.6-16-51.2-25.6-80z" />
<glyph unicode="&#xe908;" glyph-name="tenure" d="M809.6-48v297.6l-198.4 198.4 198.4 198.4v297.6h-595.2v-297.6l198.4-198.4-198.4-198.4v-297.6h595.2zM313.6 672v172.8h396.8v-172.8l-198.4-198.4-198.4 198.4z" />
<glyph unicode="&#xe909;" glyph-name="aperture" d="M512 874.667c-231.296 0-426.667-195.371-426.667-426.667s195.371-426.667 426.667-426.667 426.667 195.371 426.667 426.667-195.371 426.667-426.667 426.667zM602.155 320h-176.085l-73.515 132.011 82.731 123.989h159.403l79.829-130.645-72.363-125.355zM170.667 448c0 40.661 7.936 79.787 21.675 116.352l136.021-244.352h-131.669c-16.37 37.774-25.933 81.758-26.027 127.964v0.036zM694.741 576h132.523c16.403-37.769 25.982-81.755 26.069-127.967v-0.033c0-36.011-6.101-70.827-16.939-103.765l-141.653 231.765zM776.021 661.333h-283.861l81.28 121.899c80.469-15.317 151.979-59.861 202.581-121.899zM473.301 786.816l-83.669-125.483h-5.632v-8.405l-78.080-117.12-64.853 116.395c55.467 72.661 138.624 123.52 232.235 134.613zM247.979 234.667h304.939l-72.917-126.336c-92.416 9.088-175.317 56.789-232.021 126.336zM581.973 114.347l143.232 248.107 65.877-107.776c-49.237-70.059-123.776-121.771-209.109-140.331z" />
<glyph unicode="&#xe90a;" glyph-name="archive-in" d="M926.123 734.208l-127.957 127.957c-7.696 7.723-18.342 12.501-30.104 12.501-0.022 0-0.043 0-0.065 0h-511.997c-0.018 0-0.040 0-0.062 0-11.762 0-22.408-4.779-30.102-12.5l-127.958-127.958c-7.748-7.687-12.544-18.339-12.544-30.111 0-0.034 0-0.068 0-0.103v0.005-554.667c0-47.061 38.272-85.333 85.333-85.333h682.667c47.061 0 85.333 38.272 85.333 85.333v554.667c0 0.029 0 0.063 0 0.097 0 11.772-4.796 22.424-12.541 30.108l-0.003 0.003zM273.664 789.333h476.672l42.667-42.667h-562.005l42.667 42.667zM170.667 149.333v512h682.667l0.085-512h-682.752zM597.333 576h-170.667v-128h-128l213.333-213.333 213.333 213.333h-128z" />
<glyph unicode="&#xe90b;" glyph-name="bell" d="M810.667 380.331v153.003c0 137.259-93.227 252.885-219.52 287.659-12.501 31.488-43.051 53.675-79.147 53.675s-66.645-22.187-79.147-53.675c-126.293-34.816-219.52-150.4-219.52-287.659v-153.003l-72.832-72.832c-7.723-7.696-12.501-18.342-12.501-30.104 0-0.022 0-0.043 0-0.065v0.003-85.333c0-23.564 19.103-42.667 42.667-42.667v0h682.667c23.564 0 42.667 19.103 42.667 42.667v0 85.333c0 0.018 0 0.040 0 0.062 0 11.762-4.779 22.408-12.5 30.102l-72.833 72.833zM810.667 234.667h-597.333v25.003l72.832 72.832c7.723 7.696 12.501 18.342 12.501 30.104 0 0.022 0 0.043 0 0.065v-0.003 170.667c0 117.632 95.701 213.333 213.333 213.333s213.333-95.701 213.333-213.333v-170.667c0-11.349 4.48-22.187 12.501-30.165l72.832-72.832v-25.003zM512 21.333c0.047 0 0.104 0 0.16 0 55.241 0 102.254 35.229 119.798 84.445l0.276 0.888h-240.469c17.821-50.105 64.834-85.333 120.075-85.333 0.056 0 0.113 0 0.169 0h-0.009z" />
<glyph unicode="&#xe90c;" glyph-name="calendar" d="M298.667 490.667h85.333v-85.333h-85.333zM298.667 320h85.333v-85.333h-85.333zM469.333 490.667h85.333v-85.333h-85.333zM469.333 320h85.333v-85.333h-85.333zM640 490.667h85.333v-85.333h-85.333zM640 320h85.333v-85.333h-85.333zM213.333 21.333h597.333c47.061 0 85.333 38.272 85.333 85.333v597.333c0 47.061-38.272 85.333-85.333 85.333h-85.333v85.333h-85.333v-85.333h-256v85.333h-85.333v-85.333h-85.333c-47.061 0-85.333-38.272-85.333-85.333v-597.333c0-47.061 38.272-85.333 85.333-85.333zM810.667 618.667l0.043-512h-597.376v512h597.333z" />
<glyph unicode="&#xe90d;" glyph-name="chat" d="M213.333 192v-160.683l267.819 160.683h201.515c47.061 0 85.333 38.272 85.333 85.333v341.333c0 47.061-38.272 85.333-85.333 85.333h-512c-47.061 0-85.333-38.272-85.333-85.333v-341.333c0-47.061 38.272-85.333 85.333-85.333h42.667zM170.667 618.667h512v-341.333h-225.152l-158.848-95.317v95.317h-128v341.333zM853.333 874.667h-512c-47.061 0-85.333-38.272-85.333-85.333h512c47.061 0 85.333-38.272 85.333-85.333v-341.333c47.061 0 85.333 38.272 85.333 85.333v341.333c0 47.061-38.272 85.333-85.333 85.333z" />
<glyph unicode="&#xe90e;" glyph-name="chevron-down" d="M695.168 563.499l-183.168-183.168-183.168 183.168-60.331-60.331 243.499-243.499 243.499 243.499z" />
<glyph unicode="&#xe90f;" glyph-name="chevron-left" d="M567.168 691.499l-243.499-243.499 243.499-243.499 60.331 60.331-183.168 183.168 183.168 183.168z" />
<glyph unicode="&#xe910;" glyph-name="chevron-right" d="M456.832 204.501l243.499 243.499-243.499 243.499-60.331-60.331 183.168-183.168-183.168-183.168z" />
<glyph unicode="&#xe911;" glyph-name="chevron-up" d="M268.501 392.832l60.331-60.331 183.168 183.168 183.168-183.168 60.331 60.331-243.499 243.499z" />
<glyph unicode="&#xe912;" glyph-name="clinic" d="M542.165 862.165c-7.716 7.729-18.382 12.51-30.165 12.51s-22.449-4.781-30.165-12.509l-384.001-384.001c-7.718-7.721-12.492-18.386-12.492-30.165 0-23.561 19.097-42.661 42.657-42.667h42.667v-298.667c0-47.061 38.272-85.333 85.333-85.333h512c47.061 0 85.333 38.272 85.333 85.333v298.667h42.667c0.028 0 0.061 0 0.094 0 23.541 0 42.624 19.083 42.624 42.624 0 11.804-4.798 22.488-12.551 30.207l-384.002 384.002zM768.043 106.667h-512.043v409.003l256 256 256-256v-195.669l0.043-213.333zM554.667 533.333h-85.333v-128h-128v-85.333h128v-128h85.333v128h128v85.333h-128z" />
<glyph unicode="&#xe913;" glyph-name="download" d="M808.448 485.888c-18.645 146.859-144.427 260.779-296.277 260.779-117.589 0-219.733-68.736-266.368-177.067-91.648-27.392-160.299-113.92-160.299-206.933 0-117.632 95.701-213.333 213.333-213.333h42.667v85.333h-42.667c-70.571 0-128 57.429-128 128 0 59.904 51.157 117.632 114.048 128.683l24.789 4.352 8.192 23.808c29.995 87.509 104.448 141.824 194.304 141.824 117.632 0 213.333-95.701 213.333-213.333v-42.667h42.667c47.061 0 85.333-38.272 85.333-85.333s-38.272-85.333-85.333-85.333h-85.333v-85.333h85.333c94.123 0 170.667 76.544 170.667 170.667-0.109 79.933-55.043 147.006-129.21 165.637l-1.18 0.251zM554.837 362.667v170.667h-85.333v-170.667h-128l170.667-213.333 170.667 213.333z" />
<glyph unicode="&#xe914;" glyph-name="upload" d="M554.667 149.333v170.667h128l-170.667 213.333-170.667-213.333h128v-170.667zM298.667 149.333h85.333v85.333h-85.333c-70.571 0-128 57.429-128 128 0 59.904 51.157 117.589 114.048 128.64l24.789 4.352 8.192 23.808c29.995 87.509 104.491 141.867 194.304 141.867 117.632 0 213.333-95.701 213.333-213.333v-42.667h42.667c47.061 0 85.333-38.272 85.333-85.333s-38.272-85.333-85.333-85.333h-128v-85.333h128c94.123 0 170.667 76.544 170.667 170.667-0.141 79.922-55.060 146.978-129.209 165.636l-1.181 0.252c-18.645 146.859-144.384 260.779-296.277 260.779-117.589 0-219.733-68.736-266.368-177.067-91.648-27.392-160.299-113.92-160.299-206.933 0-117.632 95.701-213.333 213.333-213.333z" />
<glyph unicode="&#xe915;" glyph-name="comment" d="M853.333 874.667h-682.667c-47.061 0-85.333-38.272-85.333-85.333v-768l227.541 170.667h540.459c47.061 0 85.333 38.272 85.333 85.333v512c0 47.061-38.272 85.333-85.333 85.333zM853.333 277.333h-568.875l-113.792-85.333v597.333h682.667v-512z" />
<glyph unicode="&#xe916;" glyph-name="copy" d="M853.333 874.667h-426.667c-47.061 0-85.333-38.272-85.333-85.333v-170.667h-170.667c-47.061 0-85.333-38.272-85.333-85.333v-426.667c0-47.061 38.272-85.333 85.333-85.333h426.667c47.061 0 85.333 38.272 85.333 85.333v170.667h170.667c47.061 0 85.333 38.272 85.333 85.333v426.667c0 47.061-38.272 85.333-85.333 85.333zM170.667 106.667v426.667h426.667l0.085-426.667h-426.752zM853.333 362.667h-170.667v170.667c0 47.061-38.272 85.333-85.333 85.333h-170.667v170.667h426.667v-426.667zM256 448h256v-85.333h-256zM256 277.333h256v-85.333h-256z" />
<glyph unicode="&#xe917;" glyph-name="customize" d="M170.667 490.667h256c23.564 0 42.667 19.103 42.667 42.667v0 256c0 23.564-19.103 42.667-42.667 42.667v0h-256c-23.564 0-42.667-19.103-42.667-42.667v0-256c0-23.564 19.103-42.667 42.667-42.667v0zM213.333 746.667h170.667v-170.667h-170.667v170.667zM853.333 832h-256c-23.564 0-42.667-19.103-42.667-42.667v0-256c0-23.564 19.103-42.667 42.667-42.667v0h256c23.564 0 42.667 19.103 42.667 42.667v0 256c0 23.564-19.103 42.667-42.667 42.667v0zM810.667 576h-170.667v170.667h170.667v-170.667zM426.667 64c23.564 0 42.667 19.103 42.667 42.667v0 256c0 23.564-19.103 42.667-42.667 42.667v0h-256c-23.564 0-42.667-19.103-42.667-42.667v0-256c0-23.564 19.103-42.667 42.667-42.667v0h256zM213.333 320h170.667v-170.667h-170.667v170.667zM768 362.667h-85.333v-85.333h-85.333v-85.333h85.333v-85.333h85.333v85.333h85.333v85.333h-85.333z" />
<glyph unicode="&#xe918;" glyph-name="dots-horizontal" d="M512 533.333c-46.933 0-85.333-38.4-85.333-85.333s38.4-85.333 85.333-85.333 85.333 38.4 85.333 85.333-38.4 85.333-85.333 85.333zM768 533.333c-46.933 0-85.333-38.4-85.333-85.333s38.4-85.333 85.333-85.333 85.333 38.4 85.333 85.333-38.4 85.333-85.333 85.333zM256 533.333c-46.933 0-85.333-38.4-85.333-85.333s38.4-85.333 85.333-85.333 85.333 38.4 85.333 85.333-38.4 85.333-85.333 85.333z" />
<glyph unicode="&#xe919;" glyph-name="dots-vertical" d="M512 533.333c-46.933 0-85.333-38.4-85.333-85.333s38.4-85.333 85.333-85.333 85.333 38.4 85.333 85.333-38.4 85.333-85.333 85.333zM512 789.333c-46.933 0-85.333-38.4-85.333-85.333s38.4-85.333 85.333-85.333 85.333 38.4 85.333 85.333-38.4 85.333-85.333 85.333zM512 277.333c-46.933 0-85.333-38.4-85.333-85.333s38.4-85.333 85.333-85.333 85.333 38.4 85.333 85.333-38.4 85.333-85.333 85.333z" />
<glyph unicode="&#xe91a;" glyph-name="edit" d="M812.587 644.224c16.128 16.128 25.003 37.547 25.003 60.331s-8.875 44.203-25.003 60.331l-67.669 67.669c-16.128 16.128-37.547 25.003-60.331 25.003s-44.203-8.875-60.288-24.96l-453.632-452.224v-188.373h188.288l453.632 452.224zM684.587 772.224l67.712-67.627-67.84-67.584-67.669 67.627 67.797 67.584zM256 277.333v67.627l300.373 299.435 67.669-67.669-300.331-299.392h-67.712zM170.667 106.667h682.667v-85.333h-682.667z" />
<glyph unicode="&#xe91b;" glyph-name="envelope" d="M853.333 789.333h-682.667c-47.061 0-85.333-38.272-85.333-85.333v-512c0-47.061 38.272-85.333 85.333-85.333h682.667c47.061 0 85.333 38.272 85.333 85.333v512c0 47.061-38.272 85.333-85.333 85.333zM853.333 704v-21.803l-341.333-265.515-341.333 265.472v21.845h682.667zM170.667 192v382.123l315.136-245.12c7.137-5.647 16.269-9.059 26.197-9.059s19.060 3.412 26.286 9.126l-0.089-0.068 315.136 245.12 0.085-382.123h-682.752z" />
<glyph unicode="&#xe91c;" glyph-name="exit" d="M810.752 832h-597.333c-47.061 0-85.333-38.272-85.333-85.333v-170.667h85.333v170.667h597.333v-597.333h-597.333v170.667h-85.333v-170.667c0-47.061 38.272-85.333 85.333-85.333h597.333c47.061 0 85.333 38.272 85.333 85.333v597.333c0 47.061-38.315 85.333-85.333 85.333zM469.333 277.333l213.333 170.667-213.333 170.667v-128.043h-341.333v-85.333h341.333z" />
<glyph unicode="&#xe91d;" glyph-name="exit-fullscreen" d="M426.667 789.333h-85.333v-170.667h-170.667v-85.333h256zM341.333 106.667h85.333v256h-256v-85.333h170.667zM853.333 362.667h-256v-256h85.333v170.667h170.667zM853.333 618.667h-170.667v170.667h-85.333v-256h256z" />
<glyph unicode="&#xe91e;" glyph-name="female" d="M597.333 789.333c0-47.128-38.205-85.333-85.333-85.333s-85.333 38.205-85.333 85.333c0 47.128 38.205 85.333 85.333 85.333s85.333-38.205 85.333-85.333zM637.781 632.149c-5.777 17.095-21.671 29.184-40.388 29.184-0.021 0-0.042 0-0.063 0h-170.664c-0.009 0-0.019 0-0.029 0-18.725 0-34.627-12.087-40.33-28.884l-0.088-0.3-85.333-256 75.733-25.301-35.285-158.848h85.333v-170.667h170.667v170.667h85.333l-35.285 158.891 75.733 25.301-85.333 255.957z" />
<glyph unicode="&#xe91f;" glyph-name="file" d="M849.195 593.664c-2.14 4.832-4.953 8.969-8.375 12.514l-255.988 255.988c-3.532 3.41-7.67 6.222-12.231 8.255l-0.27 0.108c-1.28 0.597-2.645 0.939-4.011 1.408-3.253 1.147-7.019 1.924-10.929 2.17l-0.122 0.006c-0.896 0.085-1.707 0.555-2.603 0.555h-298.667c-47.061 0-85.333-38.272-85.333-85.333v-682.667c0-47.061 38.272-85.333 85.333-85.333h512c47.061 0 85.333 38.272 85.333 85.333v469.333c0 0.896-0.469 1.707-0.555 2.645-0.229 4.025-1.008 7.793-2.264 11.335l0.088-0.284c-0.427 1.365-0.811 2.688-1.408 3.968zM707.669 618.667h-110.336v110.336l110.336-110.336zM256 106.667v682.667h256v-213.333c0-23.564 19.103-42.667 42.667-42.667v0h213.333l0.085-426.667h-512.085zM341.333 448h341.333v-85.333h-341.333zM341.333 277.333h341.333v-85.333h-341.333zM341.333 618.667h85.333v-85.333h-85.333z" />
<glyph unicode="&#xe920;" glyph-name="fullscreen" d="M213.333 746.667h213.333v85.333h-298.667v-298.667h85.333zM426.667 149.333h-213.333v213.333h-85.333v-298.667h298.667zM896 362.667h-85.333v-213.333h-213.333v-85.333h298.667zM810.667 533.333h85.333v298.667h-298.667v-85.333h213.333z" />
<glyph unicode="&#xe921;" glyph-name="user-group" d="M708.437 488.619c20.909 35.049 33.27 77.299 33.27 122.436 0 8.571-0.446 17.039-1.315 25.38l0.088-1.042c-7.637 76.117-50.133 143.403-119.595 189.44l-47.147-71.083c47.744-31.659 76.8-76.757 81.835-126.891 0.494-4.685 0.776-10.12 0.776-15.622 0-43.692-17.783-83.231-46.507-111.773l-50.867-50.867 69.035-20.267c180.565-52.907 182.656-234.496 182.656-236.331h85.333c0 76.331-40.789 225.493-187.563 296.619zM405.333 448c94.123 0 170.667 76.544 170.667 170.667s-76.544 170.667-170.667 170.667-170.667-76.544-170.667-170.667 76.544-170.667 170.667-170.667zM405.333 704c47.061 0 85.333-38.272 85.333-85.333s-38.272-85.333-85.333-85.333-85.333 38.272-85.333 85.333 38.272 85.333 85.333 85.333zM469.333 405.333h-128c-141.184 0-256-114.816-256-256v-42.667h85.333v42.667c0 94.123 76.544 170.667 170.667 170.667h128c94.123 0 170.667-76.544 170.667-170.667v-42.667h85.333v42.667c0 141.184-114.816 256-256 256z" />
<glyph unicode="&#xe922;" glyph-name="hide" d="M512 149.333c40.363 0 77.227 4.395 110.848 11.989l-74.965 74.965c-11.648-0.896-23.467-1.621-35.883-1.621-228.309 0-316.757 164.096-338.176 213.333 17.093 37.646 38.663 69.992 64.59 98.28l-0.248-0.275-59.648 59.648c-65.621-71.125-90.496-142.763-90.965-144.171-1.399-4.029-2.207-8.672-2.207-13.504s0.808-9.475 2.297-13.802l-0.089 0.298c0.896-2.816 98.773-285.141 424.448-285.141zM512 746.667c-78.379 0-142.763-16.896-196.437-41.856l-157.397 157.355-60.331-60.331 768-768 60.331 60.331-141.611 141.611c111.531 83.243 151.339 196.907 151.936 198.699 1.399 4.029 2.207 8.672 2.207 13.504s-0.808 9.475-2.297 13.802l0.089-0.298c-0.939 2.859-98.816 285.184-424.491 285.184zM724.139 296.192l-97.28 97.28c8.107 16.64 13.141 34.944 13.141 54.528 0 70.016-57.984 128-128 128-19.584 0-37.888-5.035-54.485-13.184l-77.141 77.141c38.228 13.557 82.318 21.391 128.238 21.391 1.191 0 2.382-0.005 3.57-0.016l-0.182 0.001c228.309 0 316.757-164.096 338.176-213.333-12.885-29.525-49.749-99.925-126.037-151.808z" />
<glyph unicode="&#xe923;" glyph-name="home" d="M128 405.333h42.667v-298.667c0-47.061 38.272-85.333 85.333-85.333h512c47.061 0 85.333 38.272 85.333 85.333v298.667h42.667c23.56 0.005 42.658 19.106 42.658 42.667 0 11.78-4.774 22.445-12.492 30.165l-384 384c-7.716 7.729-18.382 12.51-30.165 12.51s-22.449-4.781-30.165-12.509l-384.001-384.001c-7.718-7.721-12.492-18.386-12.492-30.165 0-23.561 19.097-42.661 42.657-42.667h0.001zM426.667 106.667v213.333h170.667v-213.333h-170.667zM512 771.669l256-256v-195.669l0.043-213.333h-85.376v213.333c0 47.061-38.272 85.333-85.333 85.333h-170.667c-47.061 0-85.333-38.272-85.333-85.333v-213.333h-85.333v409.003l256 256z" />
<glyph unicode="&#xe924;" glyph-name="layout" d="M810.667 832h-597.333c-47.061 0-85.333-38.272-85.333-85.333v-597.333c0-47.061 38.272-85.333 85.333-85.333h597.333c47.061 0 85.333 38.272 85.333 85.333v597.333c0 47.061-38.272 85.333-85.333 85.333zM810.667 746.667l0.043-170.667h-597.376v170.667h597.333zM213.333 490.667h341.333v-341.333h-341.333v341.333zM640 149.333v341.333h170.709l0.043-341.333h-170.752z" />
<glyph unicode="&#xe925;" glyph-name="lock" d="M512 874.667c-117.632 0-213.333-95.701-213.333-213.333v-128h-42.667c-47.061 0-85.333-38.272-85.333-85.333v-341.333c0-47.061 38.272-85.333 85.333-85.333h512c47.061 0 85.333 38.272 85.333 85.333v341.333c0 47.061-38.272 85.333-85.333 85.333h-42.667v128c0 117.632-95.701 213.333-213.333 213.333zM768 448l0.085-341.333h-512.085v341.333h512zM384 533.333v128c0 70.571 57.429 128 128 128s128-57.429 128-128v-128h-256z" />
<glyph unicode="&#xe926;" glyph-name="lock-open" d="M725.333 618.667v42.667c0 117.632-95.701 213.333-213.333 213.333s-213.333-95.701-213.333-213.333v-128h-42.667c-47.061 0-85.333-38.272-85.333-85.333v-341.333c0-47.061 38.272-85.333 85.333-85.333h512c47.061 0 85.333 38.272 85.333 85.333v341.333c0 47.061-38.272 85.333-85.333 85.333h-384v128c0 70.571 57.429 128 128 128s128-57.429 128-128v-42.667h85.333zM768 448l0.085-341.333h-512.085v341.333h512z" />
<glyph unicode="&#xe927;" glyph-name="male" d="M597.333 789.333c0-47.128-38.205-85.333-85.333-85.333s-85.333 38.205-85.333 85.333c0 47.128 38.205 85.333 85.333 85.333s85.333-38.205 85.333-85.333zM640 661.333h-256c-23.564 0-42.667-19.103-42.667-42.667v0-298.667h85.333v-298.667h170.667v298.667h85.333v298.667c0 23.564-19.103 42.667-42.667 42.667v0z" />
<glyph unicode="&#xe928;" glyph-name="map" d="M915.072 699.52l-256 128c-5.562 2.844-12.133 4.511-19.093 4.511s-13.531-1.667-19.335-4.622l0.242 0.112-236.885-118.485-236.928 118.485c-5.557 2.837-12.12 4.5-19.072 4.5-23.564 0-42.667-19.103-42.667-42.667 0-0.007 0-0.014 0-0.021v0.001-554.667c0-16.171 9.131-30.933 23.595-38.187l256-128c5.562-2.844 12.133-4.511 19.093-4.511s13.531 1.667 19.335 4.622l-0.242-0.112 236.885 118.485 236.928-118.443c5.56-2.873 12.136-4.558 19.106-4.558 8.285 0 16.015 2.381 22.541 6.495l-0.175-0.103c12.587 7.808 20.267 21.504 20.267 36.309v554.667c0 16.171-9.131 30.933-23.595 38.187zM426.667 634.965l170.667 85.333v-459.264l-170.667-85.333v459.264zM170.667 720.299l170.667-85.333v-459.264l-170.667 85.333v459.264zM853.333 175.701l-170.667 85.333v459.264l170.667-85.333v-459.264z" />
<glyph unicode="&#xe929;" glyph-name="menu" d="M170.667 704h682.667v-85.333h-682.667zM170.667 490.667h682.667v-85.333h-682.667zM170.667 277.333h682.667v-85.333h-682.667z" />
<glyph unicode="&#xe92a;" glyph-name="plus" d="M810.667 490.667h-256v256h-85.333v-256h-256v-85.333h256v-256h85.333v256h256z" />
<glyph unicode="&#xe92b;" glyph-name="printer" d="M810.667 661.333h-42.667v213.333h-512v-213.333h-42.667c-70.571 0-128-57.429-128-128v-298.667c0-47.061 38.272-85.333 85.333-85.333h85.333v-128h512v128h85.333c47.061 0 85.333 38.272 85.333 85.333v298.667c0 70.571-57.429 128-128 128zM341.333 789.333h341.333v-128h-341.333v128zM682.667 106.667h-341.333v170.667h341.333v-170.667zM853.333 234.667h-85.333v128h-512v-128h-85.333v298.667c0 23.509 19.157 42.667 42.667 42.667h597.333c23.552 0 42.667-19.157 42.667-42.667v-298.667zM597.333 533.333h170.667v-85.333h-170.667z" />
<glyph unicode="&#xe92c;" glyph-name="save" d="M213.333 64h597.333c47.128 0 85.333 38.205 85.333 85.333v0 469.333c0 0.073 0.001 0.16 0.001 0.247 0 11.721-4.726 22.338-12.377 30.049l-170.664 170.664c-7.709 7.648-18.326 12.374-30.047 12.374-0.087 0-0.173 0-0.26-0.001h-469.32c-47.128 0-85.333-38.205-85.333-85.333v0-597.333c0-47.128 38.205-85.333 85.333-85.333v0zM640 149.333h-256v213.333h256zM554.667 661.333h-85.333v85.333h85.333zM213.333 746.667h85.333v-170.667h341.333v170.667h25.173l145.493-145.493v-451.84h-85.333v213.333c0 47.128-38.205 85.333-85.333 85.333v0h-256c-47.128 0-85.333-38.205-85.333-85.333v0-213.333h-85.333z" />
<glyph unicode="&#xe92d;" glyph-name="show" d="M512 576c-70.498-0.48-127.52-57.502-128-127.954v-0.046c0-70.059 57.941-128 128-128 70.016 0 128 57.941 128 128 0 70.016-57.984 128-128 128zM512 746.667c-325.675 0-423.552-282.325-424.448-285.184l-4.523-13.483 4.48-13.483c0.939-2.859 98.816-285.184 424.491-285.184s423.552 282.325 424.448 285.184l4.523 13.483-4.48 13.483c-0.939 2.859-98.816 285.184-424.491 285.184zM512 234.667c-228.309 0-316.757 164.096-338.176 213.333 21.504 49.408 109.995 213.333 338.176 213.333 228.309 0 316.757-164.096 338.176-213.333-21.504-49.408-109.995-213.333-338.176-213.333z" />
<glyph unicode="&#xe92e;" glyph-name="quote-left" d="M277.333 533.333c-9.515 0-18.645-1.451-27.733-2.773 2.944 9.899 5.973 19.968 10.837 29.013 4.864 13.141 12.459 24.533 20.011 36.011 6.315 12.416 17.451 20.821 25.643 31.445 8.576 10.325 20.267 17.195 29.525 25.771 9.088 8.96 20.992 13.44 30.464 19.755 9.899 5.675 18.517 11.947 27.733 14.933l22.997 9.472 20.224 8.405-20.693 82.688-25.472-6.144c-8.149-2.048-18.091-4.437-29.397-7.296-11.563-2.133-23.893-7.979-37.632-13.312-13.568-6.059-29.269-10.155-43.861-19.883-14.677-9.301-31.616-17.067-46.549-29.525-14.464-12.843-31.915-23.979-44.8-40.32-14.080-15.275-27.989-31.317-38.784-49.579-12.501-17.408-20.992-36.523-29.952-55.424-8.107-18.901-14.635-38.229-19.968-57.003-10.112-37.632-14.635-73.387-16.384-103.979-1.451-30.635-0.597-56.107 1.195-74.539 0.64-8.704 1.835-17.152 2.688-22.997l1.067-7.168 1.109 0.256c19.19-87.379 95.944-151.808 187.746-151.808 106.039 0 192 85.961 192 192s-85.961 192-192 192c-0.004 0-0.009 0-0.013 0h0.001zM746.667 533.333c-9.515 0-18.645-1.451-27.733-2.773 2.944 9.899 5.973 19.968 10.837 29.013 4.864 13.141 12.459 24.533 20.011 36.011 6.315 12.416 17.451 20.821 25.643 31.445 8.576 10.325 20.267 17.195 29.525 25.771 9.088 8.96 20.992 13.44 30.464 19.755 9.899 5.675 18.517 11.947 27.733 14.933l22.997 9.472 20.224 8.405-20.693 82.688-25.472-6.144c-8.149-2.048-18.091-4.437-29.397-7.296-11.563-2.133-23.893-7.979-37.632-13.312-13.525-6.101-29.269-10.155-43.861-19.925-14.677-9.301-31.616-17.067-46.549-29.525-14.464-12.843-31.915-23.979-44.8-40.277-14.080-15.275-27.989-31.317-38.784-49.579-12.501-17.408-20.992-36.523-29.952-55.424-8.107-18.901-14.635-38.229-19.968-57.003-10.112-37.632-14.635-73.387-16.384-103.979-1.451-30.635-0.597-56.107 1.195-74.539 0.64-8.704 1.835-17.152 2.688-22.997l1.067-7.168 1.109 0.256c19.19-87.379 95.944-151.808 187.746-151.808 106.039 0 192 85.961 192 192s-85.961 192-192 192c-0.004 0-0.009 0-0.013 0h0.001z" />
<glyph unicode="&#xe92f;" glyph-name="quote-right" d="M936.533 587.904l-1.067 7.168-1.109-0.256c-19.174 87.4-95.938 151.851-187.755 151.851-106.039 0-192-85.961-192-192s85.961-192 192-192c0.023 0 0.045 0 0.068 0h-0.004c9.515 0 18.645 1.451 27.733 2.773-2.944-9.899-5.973-19.968-10.837-29.013-4.864-13.141-12.459-24.533-20.011-36.011-6.315-12.416-17.451-20.821-25.643-31.445-8.576-10.325-20.267-17.195-29.525-25.771-9.088-8.96-20.992-13.44-30.464-19.755-9.899-5.675-18.517-11.947-27.733-14.933l-22.997-9.472-20.224-8.405 20.651-82.731 25.472 6.144c8.149 2.048 18.091 4.437 29.397 7.296 11.563 2.133 23.893 7.979 37.632 13.312 13.525 6.101 29.269 10.155 43.861 19.925 14.677 9.301 31.616 17.067 46.549 29.525 14.464 12.843 31.915 23.979 44.8 40.277 14.080 15.275 27.989 31.317 38.784 49.579 12.501 17.408 20.992 36.523 29.952 55.424 8.107 18.901 14.635 38.229 19.968 57.003 10.112 37.632 14.635 73.387 16.384 103.979 1.451 30.635 0.597 56.107-1.195 74.539-0.709 9.036-1.663 16.925-2.916 24.715l0.228-1.717zM467.2 587.904l-1.067 7.168-1.109-0.256c-19.174 87.4-95.938 151.851-187.755 151.851-106.039 0-192-85.961-192-192s85.961-192 192-192c0.023 0 0.045 0 0.068 0h-0.004c9.515 0 18.645 1.451 27.733 2.773-2.944-9.899-5.973-19.968-10.837-29.013-4.864-13.141-12.459-24.533-20.011-36.011-6.315-12.416-17.451-20.821-25.643-31.445-8.576-10.325-20.267-17.195-29.525-25.771-9.088-8.96-20.992-13.44-30.464-19.755-9.899-5.675-18.517-11.947-27.733-14.933l-22.997-9.472c-12.843-5.248-20.181-8.32-20.181-8.32l20.651-82.731 25.472 6.144c8.149 2.048 18.091 4.437 29.397 7.296 11.563 2.133 23.893 7.979 37.632 13.312 13.525 6.101 29.269 10.155 43.861 19.925 14.677 9.301 31.616 17.067 46.549 29.525 14.464 12.843 31.915 23.979 44.8 40.277 14.080 15.275 27.989 31.317 38.784 49.579 12.501 17.408 20.992 36.523 29.952 55.424 8.107 18.901 14.635 38.229 19.968 57.003 10.112 37.632 14.635 73.387 16.384 103.979 1.451 30.635 0.597 56.107-1.195 74.539-0.763 9.137-1.73 16.994-2.974 24.757l0.244-1.845z" />
<glyph unicode="&#xe930;" glyph-name="user-detail" d="M640 490.667h298.667v-85.333h-298.667zM682.667 320h256v-85.333h-256zM597.333 661.333h341.333v-85.333h-341.333zM170.667 149.333h426.667v42.667c0 117.632-95.701 213.333-213.333 213.333h-85.333c-117.632 0-213.333-95.701-213.333-213.333v-42.667h85.333zM341.333 448c85.12 0 149.333 64.213 149.333 149.333s-64.213 149.333-149.333 149.333-149.333-64.213-149.333-149.333 64.213-149.333 149.333-149.333z" />
<glyph unicode="&#xe931;" glyph-name="user" d="M512 874.667c-117.821 0-213.333-95.513-213.333-213.333s95.513-213.333 213.333-213.333c117.821 0 213.333 95.513 213.333 213.333v0c0 117.821-95.513 213.333-213.333 213.333v0zM512 533.333c-70.692 0-128 57.308-128 128s57.308 128 128 128c70.692 0 128-57.308 128-128v0c0-70.692-57.308-128-128-128v0zM896 64v42.667c0 164.949-133.718 298.667-298.667 298.667v0h-170.667c-164.949 0-298.667-133.718-298.667-298.667v0-42.667h85.333v42.667c0 117.821 95.513 213.333 213.333 213.333v0h170.667c117.821 0 213.333-95.513 213.333-213.333v0-42.667z" />
<glyph unicode="&#xe932;" glyph-name="user-voice" d="M341.333 448c97.28 0 170.667 73.387 170.667 170.667s-73.387 170.667-170.667 170.667-170.667-73.387-170.667-170.667 73.387-170.667 170.667-170.667zM341.333 704c50.261 0 85.333-35.072 85.333-85.333s-35.072-85.333-85.333-85.333-85.333 35.072-85.333 85.333 35.072 85.333 85.333 85.333zM384 405.333h-85.333c-117.632 0-213.333-95.701-213.333-213.333v-42.667h85.333v42.667c0 70.571 57.429 128 128 128h85.333c70.571 0 128-57.429 128-128v-42.667h85.333v42.667c0 117.632-95.701 213.333-213.333 213.333zM783.531 847.531l-60.331-60.331c56.363-56.448 87.467-131.456 87.467-211.2s-31.104-154.752-87.467-211.2l60.331-60.331c72.533 72.576 112.469 169.003 112.469 271.531s-39.936 198.955-112.469 271.531zM662.827 726.869l-60.331-60.416c24.192-24.107 37.504-56.235 37.504-90.453s-13.312-66.347-37.504-90.453l60.331-60.416c40.277 40.277 62.507 93.824 62.507 150.869s-22.229 110.592-62.507 150.869z" />
<glyph unicode="&#xe933;" glyph-name="volume-full" d="M682.667 64c150.485 66.005 255.957 209.451 255.957 384s-105.472 317.995-255.957 384v-85.333c101.845-59.136 170.624-172.672 170.624-298.667s-68.779-239.531-170.624-298.667v-85.333zM682.667 661.333v-426.667c52.267 46.933 85.333 137.771 85.333 213.333s-33.067 166.4-85.333 213.333zM170.667 234.667h115.072l245.248-163.499c6.664-4.481 14.869-7.152 23.699-7.152 7.364 0 14.294 1.858 20.347 5.131l-0.227-0.112c13.511 7.341 22.528 21.425 22.528 37.615 0 0.006 0 0.012 0 0.018v-0.001 682.667c-0.013 23.555-19.11 42.645-42.667 42.645-8.808 0-16.993-2.669-23.79-7.243l0.153 0.097-245.291-163.499h-115.072c-47.061 0-85.333-38.272-85.333-85.333v-256c0-47.061 38.272-85.333 85.333-85.333zM170.667 576h128c1.408 0 2.603 0.683 3.968 0.811 6.026 0.63 11.52 2.389 16.444 5.064l-0.231-0.115c1.109 0.64 2.432 0.725 3.499 1.408l189.653 126.464v-523.264l-189.653 126.464c-1.067 0.725-2.389 0.853-3.499 1.408-4.712 2.617-10.245 4.383-16.131 4.937l-0.168 0.013c-1.365 0.128-2.517 0.811-3.883 0.811h-128v256z" />
<glyph unicode="&#xe934;" glyph-name="book-content" d="M853.333 832h-682.667c-47.061 0-85.333-38.272-85.333-85.333v-597.333c0-47.061 38.272-85.333 85.333-85.333h682.667c47.061 0 85.333 38.272 85.333 85.333v597.333c0 47.061-38.272 85.333-85.333 85.333zM170.667 149.333v597.333h298.667v-597.333h-298.667zM554.667 149.333v597.333h298.667l0.043-597.333h-298.709zM640 661.333h128v-85.333h-128zM640 490.667h128v-85.333h-128z" />
<glyph unicode="&#xe935;" glyph-name="border-all" d="M384 64h512v768h-768v-768h256zM810.667 234.667v-85.333h-256v256h256v-170.667zM640 746.667h170.667v-256h-256v256h85.333zM213.333 661.333v85.333h256v-256h-256v170.667zM213.333 149.333v256h256v-256h-256z" />
<glyph unicode="&#xe936;" glyph-name="conversation" d="M682.667 362.667h21.333c35.285 0 64 28.715 64 64v384c0 35.285-28.715 64-64 64h-554.667c-35.285 0-64-28.715-64-64v-618.667l227.541 170.667h369.792zM284.459 448l-113.792-85.333v426.667h512v-341.333h-398.208zM874.667 618.667h-21.333v-256.043c0-46.933-38.101-85.035-84.907-85.291h-427.093v-21.333c0-35.285 28.715-64 64-64h305.792l227.541-170.667v533.333c0 35.285-28.715 64-64 64z" />
<glyph unicode="&#xe937;" glyph-name="id-card" d="M414.507 448c49.109 0 85.333 36.224 85.333 85.333s-36.224 85.333-85.333 85.333-85.333-36.224-85.333-85.333 36.181-85.333 85.333-85.333zM853.333 789.333h-682.667c-47.061 0-85.333-35.883-85.333-80v-522.667c0-44.117 38.272-80 85.333-80h682.667c47.061 0 85.333 35.883 85.333 80v522.667c0 44.117-38.272 80-85.333 80zM853.333 192l-682.667 0.469v511.531l682.667-0.469v-511.531zM597.333 576h170.667v-85.333h-170.667zM640 405.333h128v-85.333h-128zM573.013 297.131c0 58.624-71.509 118.869-158.507 118.869s-158.507-60.245-158.507-118.869v-19.797h317.013v19.797z" />
<glyph unicode="&#xe938;" glyph-name="user-circle" d="M512 874.667c-234.39-3.084-423.582-192.276-426.664-426.373l-0.003-0.294c1.141-137.825 67.455-259.928 169.594-337.143l1.073-0.777v-3.413h4.267c68.944-53.255 156.589-85.361 251.733-85.361s182.79 32.106 252.694 86.074l-0.961-0.713h4.267v3.413c103.212 77.993 169.526 200.096 170.665 337.736l0.001 0.184c-3.084 234.39-192.276 423.582-426.373 426.664l-0.294 0.003zM344.32 152.32c12.988 57.986 64.013 100.674 125.011 100.693h85.335c61.001-0.020 112.025-42.707 124.852-99.839l0.161-0.854c-47.986-28.699-105.851-45.669-167.68-45.669s-119.695 16.97-169.194 46.505l1.514-0.837zM751.36 207.36c-33.066 77.556-108.639 130.941-196.687 130.987h-85.339c-88.054-0.045-163.628-53.431-196.165-129.595l-0.529-1.392c-62.338 61.341-101.2 146.378-101.972 240.494l-0.001 0.146c2.375 187.551 153.783 338.959 341.108 341.331l0.225 0.002c187.551-2.375 338.959-153.783 341.331-341.108l0.002-0.225c-0.773-94.262-39.635-179.299-101.928-240.596l-0.045-0.044zM512 704c-1.157 0.029-2.519 0.045-3.885 0.045-92.136 0-166.827-74.691-166.827-166.827 0-1.366 0.016-2.729 0.049-4.087l-0.004 0.202c-0.029-1.157-0.045-2.519-0.045-3.885 0-92.136 74.691-166.827 166.827-166.827 1.366 0 2.729 0.016 4.087 0.049l-0.202-0.004c1.157-0.029 2.519-0.045 3.885-0.045 92.136 0 166.827 74.691 166.827 166.827 0 1.366-0.016 2.729-0.049 4.087l0.004-0.202c0.029 1.157 0.045 2.519 0.045 3.885 0 92.136-74.691 166.827-166.827 166.827-1.366 0-2.729-0.016-4.087-0.049l0.202 0.004zM512 448c-1.175-0.061-2.551-0.095-3.935-0.095-45.008 0-81.493 36.486-81.493 81.493 0 1.384 0.035 2.76 0.103 4.127l-0.008-0.192c-0.061 1.175-0.095 2.551-0.095 3.935 0 45.008 36.486 81.493 81.493 81.493 1.384 0 2.76-0.035 4.127-0.103l-0.192 0.008c1.175 0.061 2.551 0.095 3.935 0.095 45.008 0 81.493-36.486 81.493-81.493 0-1.384-0.035-2.76-0.103-4.127l0.008 0.192c0.061-1.175 0.095-2.551 0.095-3.935 0-45.008-36.486-81.493-81.493-81.493-1.384 0-2.76 0.035-4.127 0.103l0.192-0.008z" />
<glyph unicode="&#xe939;" glyph-name="wallet" d="M853.333 832h-640c-70.571 0-128-57.429-128-128v-512c0-70.571 57.429-128 128-128h640c47.061 0 85.333 38.272 85.333 85.333v597.333c0 47.061-38.272 85.333-85.333 85.333zM213.333 149.333c-23.552 0-42.667 19.157-42.667 42.667v512c0 23.509 19.115 42.667 42.667 42.667h640v-128h-256c-47.061 0-85.333-38.272-85.333-85.333v-170.667c0-47.061 38.272-85.333 85.333-85.333h256.043v-128h-640.043zM853.333 533.333v-170.667h-256v170.667h256z" />
<glyph unicode="&#xe93a;" glyph-name="copyright" d="M512 21.333c231.296 0 426.667 195.371 426.667 426.667s-195.371 426.667-426.667 426.667-426.667-195.371-426.667-426.667 195.371-426.667 426.667-426.667zM512 789.333c185.045 0 341.333-156.288 341.333-341.333s-156.288-341.333-341.333-341.333-341.333 156.288-341.333 341.333 156.288 341.333 341.333 341.333zM512 234.667c38.443 0 110.123 7.168 158.165 55.125l-60.331 60.416c-18.901-18.901-55.509-30.208-97.835-30.208-69.376 0-128 58.624-128 128s58.624 128 128 128c42.368 0 78.976-11.307 97.835-30.165l60.331 60.331c-48 48-119.723 55.168-158.165 55.168-117.632 0-213.333-95.701-213.333-213.333s95.701-213.333 213.333-213.333z" />
<glyph unicode="&#xe93b;" glyph-name="right-arrow-circle" d="M512 874.667c-235.264 0-426.667-191.403-426.667-426.667s191.403-426.667 426.667-426.667 426.667 191.403 426.667 426.667-191.403 426.667-426.667 426.667zM512 234.667v170.667h-213.333v85.333h213.333v170.667l213.333-213.333-213.333-213.333z" />
<glyph unicode="&#xe93c;" glyph-name="right-arrow-circle-outline" d="M511.957 874.965c-235.264-0.043-426.667-191.445-426.667-426.709s191.403-426.667 426.709-426.667c235.221 0 426.624 191.403 426.667 426.667 0 235.264-191.403 426.667-426.709 426.709zM512 106.923c-188.245 0-341.376 153.131-341.376 341.333s153.131 341.333 341.333 341.376c188.245-0.043 341.376-153.173 341.376-341.376-0.043-188.203-153.173-341.333-341.333-341.333zM512 490.923h-170.667v-85.333h170.667v-128.256l170.88 170.88-170.88 170.837z" />
<glyph unicode="&#xe93d;" glyph-name="dashboard" d="M170.667 405.333h256c23.564 0 42.667 19.103 42.667 42.667v0 341.333c0 23.564-19.103 42.667-42.667 42.667v0h-256c-23.564 0-42.667-19.103-42.667-42.667v0-341.333c0-23.564 19.103-42.667 42.667-42.667v0zM128 106.667c0-23.564 19.103-42.667 42.667-42.667v0h256c23.564 0 42.667 19.103 42.667 42.667v0 170.667c0 23.564-19.103 42.667-42.667 42.667v0h-256c-23.564 0-42.667-19.103-42.667-42.667v0-170.667zM554.667 106.667c0-23.564 19.103-42.667 42.667-42.667v0h256c23.564 0 42.667 19.103 42.667 42.667v0 298.667c0 23.564-19.103 42.667-42.667 42.667v0h-256c-23.564 0-42.667-19.103-42.667-42.667v0-298.667zM597.333 533.333h256c23.564 0 42.667 19.103 42.667 42.667v0 213.333c0 23.564-19.103 42.667-42.667 42.667v0h-256c-23.564 0-42.667-19.103-42.667-42.667v0-213.333c0-23.564 19.103-42.667 42.667-42.667v0z" />
<glyph unicode="&#xe93e;" glyph-name="search" d="M426.667 192c79.148 0.017 151.959 27.132 209.664 72.572l-0.725-0.55 187.563-187.563 60.331 60.331-187.563 187.563c44.913 56.987 72.044 129.814 72.064 208.977v0.005c0 188.203-153.131 341.333-341.333 341.333s-341.333-153.131-341.333-341.333 153.131-341.333 341.333-341.333zM426.667 789.333c141.184 0 256-114.816 256-256s-114.816-256-256-256-256 114.816-256 256 114.816 256 256 256zM486.912 593.664c16.171-16.213 25.088-37.632 25.088-60.331h85.333c0 0.085 0 0.185 0 0.286 0 47.052-19.15 89.63-50.082 120.367l-0.009 0.009c-64.597 64.512-176.597 64.512-241.152 0l60.245-60.416c32.427 32.341 88.32 32.256 120.576 0.085z" />
<glyph unicode="&#xe93f;" glyph-name="table" d="M170.667 64h678.101c47.061 0 85.333 38.272 85.333 85.333v597.333c0 47.061-38.272 85.333-85.333 85.333h-678.101c-47.061 0-85.333-38.272-85.333-85.333v-597.333c0-47.061 38.272-85.333 85.333-85.333zM170.667 149.333v213.333h170.667v-213.333h-170.667zM597.333 661.333v-213.333h-170.667v213.333h170.667zM341.333 661.333v-213.333h-170.667v213.333h170.667zM426.667 149.333v213.333h170.667v-213.333h-170.667zM682.667 149.333v213.333h166.144v-213.333h-166.144zM848.768 448h-166.101v213.333h166.101v-213.333z" />
<glyph unicode="&#xe940;" glyph-name="spreadsheet" d="M896 746.667c0 47.061-38.272 85.333-85.333 85.333h-597.333c-47.061 0-85.333-38.272-85.333-85.333v-597.333c0-47.061 38.272-85.333 85.333-85.333h597.333c47.061 0 85.333 38.272 85.333 85.333v597.333zM213.333 149.333v597.333h597.333l0.085-597.333h-597.419zM298.667 661.333h85.248v-85.333h-85.248zM469.333 661.333h256v-85.333h-256zM298.667 490.667h85.248v-85.333h-85.248zM469.333 490.667h256v-85.333h-256zM298.667 320h85.248v-85.333h-85.248zM469.333 320h256v-85.333h-256z" />
<glyph unicode="&#xe941;" glyph-name="at" d="M512 874.667c-235.264 0-426.667-191.403-426.667-426.667s191.403-426.667 426.667-426.667c62.549 0 126.336 15.829 189.525 47.104l-37.76 76.501c-51.371-25.387-102.443-38.272-151.765-38.272-188.203 0-341.333 153.131-341.333 341.333s153.131 341.333 341.333 341.333 341.333-153.131 341.333-341.333v-42.667c0-29.525-13.355-85.333-64-85.333-59.563 0-63.744 77.611-64 85.333v213.333h-85.333v-1.067c-35.051 27.134-79.591 43.557-127.959 43.733h-0.041c-117.632 0-213.333-95.701-213.333-213.333s95.701-213.333 213.333-213.333c61.867 0 117.248 26.923 156.245 69.163 22.357-37.973 60.075-69.163 121.088-69.163 96.981 0 149.333 87.936 149.333 170.667v42.667c0 235.264-191.403 426.667-426.667 426.667zM512 320c-70.571 0-128 57.429-128 128s57.429 128 128 128 128-57.429 128-128-57.429-128-128-128z" />
<glyph unicode="&#xe942;" glyph-name="file-doc" d="M519.936 339.115c-26.325 0-41.685-25.045-41.685-58.581 0-33.749 15.829-57.6 41.941-57.6 26.325 0 41.429 25.088 41.429 58.624 0 30.976-14.848 57.557-41.685 57.557zM597.333 874.667h-341.333c-47.128 0-85.333-38.205-85.333-85.333v0-682.667c0-47.128 38.205-85.333 85.333-85.333v0h512c47.128 0 85.333 38.205 85.333 85.333v0 512l-256 256zM390.613 215.296c-18.176-15.104-45.781-22.229-79.531-22.229-20.267 0-34.56 1.28-44.288 2.56v169.429c14.912 2.263 32.118 3.555 49.625 3.555 1.079 0 2.156-0.005 3.233-0.015l-0.165 0.001c32.768 0 54.016-5.888 70.613-18.432 17.92-13.312 29.184-34.56 29.184-64.939 0-33.067-12.032-55.851-28.672-69.931zM518.187 192c-51.2 0-81.109 38.656-81.109 87.808 0 51.669 32.981 90.283 83.925 90.283 52.949 0 81.877-39.637 81.877-87.253-0.043-56.533-34.347-90.837-84.693-90.837zM716.8 224.512c11.733 0 24.789 2.603 32.512 5.632l5.888-30.421c-7.168-3.584-23.296-7.424-44.245-7.424-59.605 0-90.325 37.077-90.325 86.229 0 58.837 41.941 91.563 94.165 91.563 20.224 0 35.541-4.096 42.453-7.68l-7.936-30.976c-9.531 4.048-20.616 6.402-32.25 6.402-0.182 0-0.364-0.001-0.546-0.002h0.028c-30.976 0-55.040-18.688-55.040-57.088 0-34.517 20.48-56.235 55.296-56.235zM597.333 576h-42.667v213.333l213.333-213.333h-170.667zM323.584 338.645c-8.661 0-14.293-0.768-17.621-1.536v-112.853c3.328-0.768 8.704-0.768 13.525-0.768 35.328-0.256 58.325 19.157 58.325 60.373 0.256 35.84-20.693 54.784-54.229 54.784z" />
<glyph unicode="&#xe943;" glyph-name="file-export" d="M768 21.333c47.128 0 85.333 38.205 85.333 85.333v0 213.333l-213.333-170.667v128h-298.667v85.333h298.667v128l213.333-170.667v298.667l-256 256h-341.333c-47.128 0-85.333-38.205-85.333-85.333v0-682.667c0-47.128 38.205-85.333 85.333-85.333v0h512zM554.667 789.333l213.333-213.333h-213.333v213.333z" />
<glyph unicode="&#xe944;" glyph-name="file-pdf" d="M352.725 333.653c-7.851 0-13.141-0.768-15.872-1.536v-50.261c3.243-0.768 7.296-0.981 12.885-0.981 20.437 0 33.024 10.325 33.024 27.776 0 15.616-10.837 25.003-30.037 25.003zM501.504 333.141c-8.533 0-14.080-0.768-17.365-1.536v-111.36c3.285-0.768 8.576-0.768 13.355-0.768 34.859-0.256 57.557 18.944 57.557 59.563 0.256 35.413-20.437 54.101-53.547 54.101zM597.333 874.667h-341.333c-47.128 0-85.333-38.205-85.333-85.333v0-682.667c0-47.128 38.205-85.333 85.333-85.333v0h512c47.128 0 85.333 38.205 85.333 85.333v0 512l-256 256zM405.248 269.227c-13.184-12.373-32.64-17.92-55.296-17.92-0.307-0.004-0.67-0.006-1.033-0.006-4.269 0-8.472 0.281-12.592 0.826l0.484-0.052v-60.843h-38.144v167.936c14.299 2.246 30.788 3.529 47.578 3.529 1.559 0 3.115-0.011 4.668-0.033l-0.235 0.003c23.765 0 40.661-4.523 52.053-13.611 10.837-8.619 18.176-22.741 18.176-39.381-0.043-16.725-5.589-30.848-15.659-40.448zM567.68 211.413c-17.92-14.891-45.184-21.973-78.507-21.973-19.968 0-34.091 1.28-43.691 2.56v167.125c14.716 2.263 31.693 3.555 48.971 3.555 1.069 0 2.137-0.005 3.203-0.015l-0.163 0.001c32.299 0 53.291-5.803 69.675-18.176 17.707-13.141 28.8-34.091 28.8-64.171 0-32.555-11.904-55.040-28.288-68.907zM725.333 329.813h-65.365v-38.869h61.099v-31.317h-61.099v-68.437h-38.656v170.197h104.021v-31.573zM597.333 576h-42.667v213.333l213.333-213.333h-170.667z" />
<glyph unicode="&#xe945;" glyph-name="minus" d="M213.333 490.667h597.333v-85.333h-597.333z" />
<glyph unicode="&#xe946;" glyph-name="purchase-tag" d="M584.832 819.499c-7.696 7.723-18.342 12.501-30.104 12.501-0.022 0-0.043 0-0.065 0h-383.997c-23.564 0-42.667-19.103-42.667-42.667v0-384c0-11.349 4.48-22.187 12.501-30.165l341.333-341.333c7.706-7.749 18.376-12.545 30.165-12.545s22.459 4.796 30.163 12.544l384.002 384.002c7.729 7.716 12.51 18.382 12.51 30.165s-4.781 22.449-12.509 30.165l-341.334 341.334zM512 124.331l-298.667 298.667v323.669h323.669l298.667-298.667-323.669-323.669zM426.709 597.547c0-35.464-28.749-64.213-64.213-64.213s-64.213 28.749-64.213 64.213c0 35.464 28.749 64.213 64.213 64.213s64.213-28.749 64.213-64.213z" />
<glyph unicode="&#xe947;" glyph-name="tag" d="M853.333 789.333h-490.027c-28.515-0.012-53.758-14.008-69.246-35.502l-0.173-0.253-200.576-280.789c-4.982-6.878-7.97-15.485-7.97-24.789s2.987-17.911 8.055-24.913l-0.086 0.124 200.576-280.789c15.66-21.747 40.904-35.743 69.417-35.755h490.029c47.061 0 85.333 38.272 85.333 85.333v512c0 47.061-38.272 85.333-85.333 85.333zM853.333 192h-490.027l-182.869 256 182.869 256h490.027v-512z" />
<glyph unicode="&#xe948;" glyph-name="purchase-tag-alt" d="M499.499 862.165c-7.702 7.723-18.354 12.501-30.121 12.501-0.015 0-0.031 0-0.046 0h-213.331c-0.013 0-0.028 0-0.044 0-11.768 0-22.419-4.778-30.12-12.5l-128.001-128.001c-7.723-7.696-12.501-18.342-12.501-30.104 0-0.022 0-0.043 0-0.065v0.003-213.333c0-11.349 4.48-22.187 12.501-30.165l426.667-426.667c7.706-7.749 18.376-12.545 30.165-12.545s22.459 4.796 30.163 12.544l341.335 341.335c7.729 7.716 12.51 18.382 12.51 30.165s-4.781 22.449-12.509 30.165l-426.668 426.668zM554.667 124.331l-384 384v178.005l102.997 102.997h178.005l384-384-281.003-281.003zM426.667 603.605c0-38.81-31.462-70.272-70.272-70.272s-70.272 31.462-70.272 70.272c0 38.81 31.462 70.272 70.272 70.272s70.272-31.462 70.272-70.272z" />
<glyph unicode="&#xe949;" glyph-name="pencil" d="M170.667 64c1.537-0.196 3.315-0.308 5.12-0.308s3.583 0.112 5.328 0.329l-0.208-0.021 170.667 42.667c7.879 1.914 14.67 5.796 20.059 11.099l-0.006-0.005 524.373 526.080c15.335 15.424 24.814 36.685 24.814 60.16s-9.479 44.736-24.818 60.164l-67.409 67.836c-15.446 15.462-36.792 25.027-60.373 25.027s-44.928-9.565-60.373-25.026l-524.374-524.374c-5.356-5.413-9.357-12.177-11.445-19.736l-0.075-0.318-42.667-170.667c-0.988-3.423-1.557-7.355-1.557-11.42 0-20.028 13.8-36.834 32.41-41.426l0.293-0.061c1.537-0.196 3.315-0.308 5.12-0.308s3.583 0.112 5.328 0.329l-0.208-0.021zM768 771.84l67.84-67.84-67.84-67.84-67.413 67.84zM252.16 255.573l387.84 388.267 67.84-67.84-388.267-388.267-90.027-22.187z" />
<glyph unicode="&#xe94a;" glyph-name="x" d="M690.859 689.323l-181.035-180.992-180.992 180.992-60.331-60.331 180.992-180.992-180.992-180.992 60.331-60.331 180.992 180.992 181.035-180.992 60.331 60.331-180.992 180.992 180.992 180.992z" />
<glyph unicode="&#xe94b;" glyph-name="expand" d="M213.333 448h-85.333v-384h384v85.333h-298.667zM512 746.667h298.667v-298.667h85.333v384h-384z" />
<glyph unicode="&#xe94c;" glyph-name="filter" d="M182 696.667q-12 14-12 28 0 18 13 31t31 13h596q18 0 31-13t13-31q2-12-10-26l-246-314v-256q0-18-12-31t-30-13h-86q-18 0-31 13t-13 31v256q-240 306-244 312z" />
<glyph unicode="&#xe94d;" glyph-name="bar-chart" d="M384 704h85.333v-597.333h-85.333zM554.667 618.667h85.333v-512h-85.333zM725.333 789.333h85.333v-682.667h-85.333zM213.333 448h85.333v-341.333h-85.333z" />
<glyph unicode="&#xe94e;" glyph-name="check" d="M426.667 294.997l-140.501 140.501-60.331-60.331 200.832-200.832 414.165 414.165-60.331 60.331z" />
<glyph unicode="&#xe94f;" glyph-name="ship" d="M725.205 106.667c-38.357 0-54.955 13.269-80.043 33.323-29.013 23.168-65.067 52.011-133.419 52.011-68.309 0-104.363-28.843-133.333-52.053-25.045-20.011-41.6-33.28-79.957-33.28-38.272 0-54.827 13.269-79.872 33.28-28.971 23.211-64.939 52.053-133.248 52.053v-85.333c38.315 0 54.869-13.269 79.915-33.28 28.971-23.211 64.981-52.053 133.205-52.053 68.309 0 104.32 28.843 133.291 52.011 25.088 20.053 41.643 33.323 80 33.323 38.4 0 55.936-13.995 80.128-33.323 28.971-23.168 65.024-52.011 133.333-52.011s104.363 28.843 133.333 52.011c24.192 19.328 41.728 33.323 80.128 33.323v85.333c-68.352 0-104.405-28.843-133.419-52.011-25.088-20.053-41.685-33.323-80.043-33.323zM256 597.333l-85.333-21.333 85.333-341.333h42.453c68.309 0 104.32 28.843 133.291 52.011 25.088 20.053 41.643 33.323 80 33.323 38.4 0 55.936-13.995 80.128-33.323 28.971-23.168 65.024-52.011 133.333-52.011h42.795l1.152 4.565 84.181 336.768-85.333 21.333v149.291c0 0.005 0 0.011 0 0.017 0 20.605-14.606 37.798-34.029 41.792l-0.275 0.047-179.029 35.797v50.389h-85.333v-50.389l-179.029-35.797c-19.698-4.041-34.304-21.234-34.304-41.839 0-0.006 0-0.012 0-0.018v0.001-149.291zM341.333 711.723l170.667 34.133 170.667-34.133v-93.056l-170.667 42.667-170.667-42.667v93.056z" />
<glyph unicode="&#xe950;" glyph-name="bank" d="M85.333 618.667v-170.709h42.667v-255.957h-42.667v-128h853.333v128h-42.667v255.957h42.667v170.709l-426.667 256-426.667-256zM256 192v255.957h85.333v-255.957h-85.333zM469.333 192v255.957h85.333v-255.957h-85.333zM768 192h-85.333v255.957h85.333v-255.957zM597.333 618.667c-0.012-47.131-38.222-85.333-85.355-85.333-47.14 0-85.355 38.215-85.355 85.355 0 0.007 0 0.015 0 0.022v-0.001c0.012 47.131 38.222 85.333 85.355 85.333 47.14 0 85.355-38.215 85.355-85.355 0-0.007 0-0.015 0-0.022v0.001z" />
<glyph unicode="&#xe951;" glyph-name="report" d="M853.333 618.667l-256 256h-341.333c-47.128 0-85.333-38.205-85.333-85.333v0-682.667c0-47.128 38.205-85.333 85.333-85.333v0h512c47.128 0 85.333 38.205 85.333 85.333v0 512zM384 149.333h-85.333v384h85.333v-384zM554.667 149.333h-85.333v256h85.333v-256zM725.333 149.333h-85.333v128h85.333v-128zM597.333 576h-42.667v213.333l213.333-213.333h-170.667z" />
<glyph unicode="&#xe952;" glyph-name="user-pin" d="M512 533.333c49.109 0 85.333 36.181 85.333 85.333s-36.224 85.333-85.333 85.333c-49.067 0-85.333-36.181-85.333-85.333s36.267-85.333 85.333-85.333zM512 490.667c-94.251 0-170.667-68.779-170.667-153.6v-16.469h341.333v16.469c0 84.821-76.416 153.6-170.667 153.6zM810.667 874.667h-597.333c-47.061 0-85.333-38.272-85.333-85.333v-554.667c0-47.061 38.272-85.333 85.333-85.333h170.667l128-128 128 128h170.667c47.061 0 85.333 38.272 85.333 85.333v554.667c0 47.061-38.272 85.333-85.333 85.333zM597.333 234.667l-85.333-85.333-85.333 85.333h-213.333v554.667h597.333l0.085-554.667h-213.419z" />
<glyph unicode="&#xe953;" glyph-name="right-arrow-circle-alt" d="M512 874.667c-235.264 0-426.667-191.403-426.667-426.667s191.403-426.667 426.667-426.667 426.667 191.403 426.667 426.667-191.403 426.667-426.667 426.667zM512 234.667v170.667h-213.333v85.333h213.333v170.667l213.333-213.333-213.333-213.333z" />
<glyph unicode="&#xe954;" glyph-name="down-chevron-blue" d="M105.344 662.656c5.794 5.808 13.805 9.401 22.656 9.401s16.862-3.593 22.655-9.401l361.345-361.409 361.344 361.408c5.798 5.798 13.808 9.384 22.656 9.384 17.695 0 32.040-14.345 32.040-32.040 0-8.848-3.586-16.858-9.384-22.656v0l-384-384c-5.794-5.808-13.805-9.401-22.656-9.401s-16.862 3.593-22.655 9.401l-384.001 384.001c-5.808 5.794-9.401 13.805-9.401 22.656s3.593 16.862 9.401 22.655l0.001 0.001z" />
<glyph unicode="&#xe955;" glyph-name="down-chevron-grey" d="M105.344 662.656c5.794 5.808 13.805 9.401 22.656 9.401s16.862-3.593 22.655-9.401l361.345-361.409 361.344 361.408c5.798 5.798 13.808 9.384 22.656 9.384 17.695 0 32.040-14.345 32.040-32.040 0-8.848-3.586-16.858-9.384-22.656v0l-384-384c-5.794-5.808-13.805-9.401-22.656-9.401s-16.862 3.593-22.655 9.401l-384.001 384.001c-5.808 5.794-9.401 13.805-9.401 22.656s3.593 16.862 9.401 22.655l0.001 0.001z" />
<glyph unicode="&#xe956;" glyph-name="info-circle" d="M512 874.667c-235.264 0-426.667-191.403-426.667-426.667s191.403-426.667 426.667-426.667 426.667 191.403 426.667 426.667-191.403 426.667-426.667 426.667zM512 106.667c-188.203 0-341.333 153.131-341.333 341.333s153.131 341.333 341.333 341.333 341.333-153.131 341.333-341.333-153.131-341.333-341.333-341.333zM469.333 490.667h85.333v-256h-85.333zM469.333 661.333h85.333v-85.333h-85.333z" />
<glyph unicode="&#xe957;" glyph-name="theme" d="M0 84.667h1024v-170h-1024v170zM810 448.667q86-94 86-150 0-34-26-60t-60-26-59 26-25 60q0 24 21 62t41 62zM222 512.667h410l-206 204zM706 556.667q20-20 20-46t-20-44l-234-234q-20-20-46-20-24 0-44 20l-236 234q-18 18-18 46 0 26 18 44l220 220-102 102 62 60z" />
<glyph unicode="&#xe958;" glyph-name="line-chart" d="M128 832v-725.333c0-23.564 19.103-42.667 42.667-42.667v0h725.333v85.333h-682.667v682.667h-85.333zM652.501 332.501c7.716-7.729 18.382-12.51 30.165-12.51s22.449 4.781 30.165 12.509l213.334 213.334-60.331 60.331-183.168-183.168-97.835 97.835c-7.716 7.729-18.382 12.51-30.165 12.51s-22.449-4.781-30.165-12.509l-213.334-213.334 60.331-60.331 183.168 183.168 97.835-97.835z" />
<glyph unicode="&#xe959;" glyph-name="doughnut-chart" d="M554.667 704c106.965-18.048 195.285-106.368 213.333-213.333h170.667c-20.096 201.259-182.741 363.904-384 384v-170.667zM768 405.333c-20.395-120.875-127.232-211.157-253.824-211.157-141.184 0-256 114.816-256 256 0 126.592 90.283 233.429 211.157 253.824v170.667c-215.296-21.504-381.824-203.648-381.824-424.491 0-235.264 191.403-426.667 426.667-426.667 220.843 0 402.987 166.528 424.491 381.824h-170.667z" />
</font>
</defs>
</svg>
