<svg id="Layer_1" data-name="Layer 1" xmlns="http://www.w3.org/2000/svg" viewBox="0 0 213.39 228"><defs><style>.cls-1{fill:#fff;}</style></defs><path class="cls-1" d="M124.94,228c-.49-1.43-1.35-2.86-1.4-4.31-.17-5.25-.07-10.52-.07-15.78,0-3.91.47-4.55,4.23-5.59v-2.4c0-13.6.07-27.21,0-40.82A14.75,14.75,0,0,1,132,148.15c7.53-7.89,15.19-15.67,22.23-24,6.39-7.54,17.48-7.46,22.6,2.16,3.55-4,7.07-7.85,10.49-11.81a3.57,3.57,0,0,0,.39-2.13c0-6,0-12,0-18,0-8.39,6.17-14.78,14.26-14.89s14.47,6.06,14.7,14.47c.36,12.77.65,25.55.79,38.33a7.39,7.39,0,0,1-1.67,4.4q-21.14,25.68-42.45,51.21c-1.6,1.92-3.38,3.7-2.52,6.68h-7.15c-.52-3.49-.1-6.37,2.32-9.24,14.4-17.06,28.58-34.29,42.88-51.44a5.67,5.67,0,0,0,1.46-4c-.34-11.8-.56-23.6-.86-35.4-.12-4.75-3.19-7.86-7.53-7.74s-7,3.32-7,8c0,6.61.12,13.23,0,19.84a6.39,6.39,0,0,1-1.33,3.86q-17.77,19.95-35.73,39.73a8.45,8.45,0,0,1-.79.66l-5.22-4.69c.7-.79,1.32-1.52,1.95-2.22,5-5.53,10-11,15-16.58,1.95-2.18,2.25-4.42,1-6.62a5.11,5.11,0,0,0-5.52-2.62,6.67,6.67,0,0,0-3.28,1.74q-12.39,13.11-24.59,26.41a5.6,5.6,0,0,0-1.34,3.43c-.08,14.73,0,29.47,0,44.2a5.06,5.06,0,0,0,.19.82h35.2c3.56,0,4.68,1.14,4.68,4.75,0,5.33.1,10.67-.06,16-.05,1.54-.85,3.05-1.3,4.58Zm42.8-18H130.81v11.11h36.93Z" transform="translate(-4)"/><path class="cls-1" d="M47.81,228c-.45-1.53-1.23-3.05-1.28-4.6-.17-5.18-.07-10.37-.06-15.55,0-3.82.57-4.56,4.41-5.49,0-3.53.11-7.13-.08-10.71,0-.9-1-1.81-1.61-2.6Q27.55,162.93,5.83,136.86A7.22,7.22,0,0,1,4,131.76c.36-12.7.58-25.4.92-38.09A14.46,14.46,0,0,1,33.84,94c0,6.09-.08,12.18,0,18.27A5.46,5.46,0,0,0,35,115.4c3.1,3.66,6.35,7.18,9.71,10.92l1.14-1.8c4.36-6.74,13.74-8.08,19.33-2.33C74,131.24,82.54,140.53,91,149.93a10.84,10.84,0,0,1,2.66,6.49c.25,12.39.12,24.79.12,37.37H86.57v-2.46c0-10.9,0-21.8,0-32.7a7.1,7.1,0,0,0-2-5.25Q72.66,140.73,60.87,128a5.5,5.5,0,0,0-6.1-1.78,5.12,5.12,0,0,0-3.6,4.25c-.38,2.14.64,3.75,2,5.25q7.5,8.25,15,16.56c.49.55.94,1.13,1.53,1.83-1.74,1.58-3.38,3.08-5.62,5.1a9.55,9.55,0,0,0-1-1.83Q45.69,138.08,28.3,118.85a6.35,6.35,0,0,1-1.74-4.67c.1-6.54.09-13.08.09-19.62,0-4.66-2.88-7.83-7.12-7.89s-7.3,3.07-7.41,7.63c-.3,11.65-.53,23.3-.87,34.94a6.69,6.69,0,0,0,1.66,4.87c14.36,17.18,28.63,34.44,43,51.63a8.4,8.4,0,0,1,2.26,6.11c-.16,3.51,0,7,0,10.81H93.22c3.74,0,4.82,1.08,4.83,4.82,0,5.42.11,10.83-.07,16.24,0,1.44-1,2.85-1.45,4.28Zm6-6.91H90.64V210H53.77Z" transform="translate(-4)"/><path class="cls-1" d="M110.11,14.36c5.89-3.55,11.14-7.43,16.94-10.09,25.56-11.7,54.38,1.57,62.05,28.42,4,14.08.89,27.11-7,39.07a77.22,77.22,0,0,1-9.59,11.62c-19.3,19.5-38.75,38.85-58.16,58.25-3,3-4.36,3-7.35,0Q77.75,112.32,48.48,83.07c-8.43-8.43-14.46-18.13-16.73-30C27.23,29.26,44.37,4.85,68.31,1.11,83.87-1.32,97.18,3.6,109,13.44ZM110.7,135c.49-.45.94-.83,1.35-1.25q28.06-28.05,56.1-56.13a63.72,63.72,0,0,0,6.19-7.15c7.31-9.9,11.11-20.81,8.46-33.19C177.71,13.45,153,.79,130.6,10.4A54.16,54.16,0,0,0,114.78,21c-3.51,3.33-4.61,3.35-8,.09l-.32-.31C96.69,12,85.72,6.49,72.14,7.8,50,10,34.26,31.67,39.12,53.42c2.16,9.64,7.4,17.46,14.27,24.33q27.89,27.91,55.8,55.8C109.66,134,110.16,134.48,110.7,135Z" transform="translate(-4)"/><path class="cls-1" d="M97.33,52c0-5.23,0-10.1,0-15,0-3.77,1.06-4.83,4.79-4.83q9,0,18,0c3.12,0,4.34,1.24,4.35,4.38,0,5,0,10,0,15.43h4.08c3.9,0,7.81,0,11.71,0,2.7,0,4,1.32,4,4q0,9.47,0,18.93c0,2.9-1.36,4.17-4.36,4.18-5,0-10.06,0-15.46,0v2.22c0,4.44,0,8.87,0,13.3,0,3-1.29,4.3-4.22,4.31q-9.34,0-18.7,0c-3,0-4.22-1.26-4.24-4.27,0-5.09,0-10.18,0-15.55H83c-4.64,0-5.48-.86-5.49-5.52q0-8.34,0-16.67c0-3.95,1-5,4.88-5ZM137,59.22c-5.13,0-10.15,0-15.16,0-3.23,0-4.52-1.33-4.54-4.52,0-4.06,0-8.12,0-12.17V39.58H104.55c0,5.07,0,10,0,14.83,0,3.52-1.27,4.78-4.74,4.8-3.91,0-7.81,0-11.72,0H84.84V72c5.19,0,10.28,0,15.36,0,2.94,0,4.29,1.33,4.33,4.27.06,3.83,0,7.66,0,11.5v3.89h12.74V77.29c0-4.3,1-5.34,5.29-5.34H137Z" transform="translate(-4)"/></svg>