<svg id="Layer_1" data-name="Layer 1" xmlns="http://www.w3.org/2000/svg" viewBox="0 0 246.8 255.06"><defs><style>.cls-1{fill:#fff;}</style></defs><path class="cls-1" d="M144.7,144.84a17.17,17.17,0,0,1,11.63,5.25,16.51,16.51,0,0,1,4.52,11.68c0,11.9,0,23.81,0,35.72,0,5.8-3.3,9.1-9,9.14h-3.29v3q0,20.43,0,40.86c0,4.21-1.33,5.53-5.53,5.53H112.66c-3.87,0-5.27-1.4-5.28-5.25q0-20.56,0-41.12v-3c-1.61,0-3,.05-4.3,0a8.12,8.12,0,0,1-8-8.09c-.07-12.59-.12-25.18,0-37.77a16.14,16.14,0,0,1,12.81-15.38c1.06-.24,2.15-.41,3.23-.61-5.66-12.62-4.3-21.8,4.19-28.37a20.44,20.44,0,0,1,25.45.15C149.14,123.21,150.44,132.44,144.7,144.84Zm-37.23,53.45V161.52h8.16v86.06h8.26v-49h8.25v49.08h8.17V161.57h8.2v36.69h4.11v-2.15c0-11.31,0-22.61,0-33.92,0-5.75-3.35-9-9.17-9q-15.54,0-31.1,0c-5.73,0-9.07,3.35-9.08,9.09q0,16.85,0,33.67v2.36ZM128,144.93a12.34,12.34,0,1,0-12.42-12.38A12.38,12.38,0,0,0,128,144.93Z" transform="translate(-4.55 -0.94)"/><path class="cls-1" d="M148.14,16.53a42,42,0,0,1,3.1-3.59,7.42,7.42,0,0,1,10.64-.11q4,3.65,7.63,7.63c3.07,3.33,3,7.5-.16,10.83-1.06,1.12-2.29,2.06-3.41,3.05a14.82,14.82,0,0,1,.7,1.75c1,4.19,3.14,6.08,7.82,5.63,3.75-.36,6.79,3.25,6.92,7.19.12,3.68.12,7.37,0,11.05-.14,4.15-3.34,7.6-7.43,7.25s-6.2,1-7,4.89a7.43,7.43,0,0,1-1.47,2.54A29,29,0,0,1,169,77.23c3.73,3.75,3.71,7.93,0,11.76q-3.21,3.33-6.54,6.54c-3.81,3.65-8,3.61-11.77-.13-1-1-1.77-2.09-2.56-3a16.46,16.46,0,0,1-1.65.68c-4.2,1-6.32,3.12-5.81,8,.38,3.63-3.2,6.68-7,6.84s-7.55.15-11.31,0a7.21,7.21,0,0,1-7.19-7.76c.29-3.71-.89-5.52-4.43-6.57-1.94-.59-3.06-.68-4.55.87-5,5.25-8.72,5.16-13.93,0-1.82-1.82-3.67-3.6-5.44-5.46-3.57-3.73-3.55-7.89,0-11.58,1-1,2-1.84,3.07-2.78-.9-2.21-1.64-4.2-2.54-6.11a2.38,2.38,0,0,0-1.45-1,8.22,8.22,0,0,0-2,0c-6.61,0-9.38-2.76-9.39-9.32,0-3-.07-6,0-9,.14-4.17,3.28-7.71,7.33-7.33,4.21.39,6.3-1.13,7.14-5a14.11,14.11,0,0,1,1.09-2.44,40.55,40.55,0,0,1-3.59-3c-3.11-3.28-3.12-7.48,0-10.83,2.34-2.5,4.77-4.93,7.26-7.27,3.52-3.31,7.92-3.41,11.16.16,2.28,2.51,4.15,3.16,7.31,1.53,2.12-1.1,3-2,2.92-4.46-.17-6.59,2.7-9.33,9.31-9.33,3,0,6-.08,9,0,4.16.14,7.62,3.28,7.3,7.37s.87,6.26,4.82,7A16,16,0,0,1,148.14,16.53Zm15.42,66.05a22.86,22.86,0,0,1-2.94-2.13c-3.34-3.33-3.76-6.18-1.77-10.45.76-1.63,1.42-3.3,2-5,1.47-4,4-5.83,8.34-5.91,1.26,0,2.51,0,4,0V49.77h-3.62c-4.81,0-7.12-1.75-8.78-6.33-.64-1.77-1.44-3.48-2.21-5.19-1.57-3.48-1.17-6.46,1.47-9.21a28.69,28.69,0,0,1,3.09-2.52l-7-7.31c-.73.87-1.43,1.86-2.28,2.69-3.24,3.18-6.11,3.59-10.27,1.66-1.78-.83-3.62-1.52-5.46-2.22a7.9,7.9,0,0,1-5.47-7.61c-.06-1.43,0-2.86,0-4.4h-9.34c0,1.31,0,2.49,0,3.67-.06,4.51-1.85,7-6,8.52-1.77.64-3.51,1.37-5.21,2.15-3.87,1.78-6.77,1.36-9.83-1.64A26.48,26.48,0,0,1,100,19.19l-7.28,7.12a30.51,30.51,0,0,1,2.68,2.2c3.22,3.27,3.65,6.14,1.73,10.25q-1.14,2.45-2.06,5c-1.48,4.07-4,5.94-8.25,6-1.33,0-2.66,0-3.87,0v9.34h3.54c4.64,0,7,1.8,8.62,6.21.64,1.76,1.41,3.49,2.19,5.2,1.64,3.59,1.23,6.57-1.51,9.42a35.25,35.25,0,0,1-3.18,2.64l7.29,7.21a27.23,27.23,0,0,1,2.31-2.91c3.13-3.08,6-3.47,10-1.61,1.78.83,3.62,1.52,5.46,2.22a8,8,0,0,1,5.58,7.8c0,1.42,0,2.84,0,4.21h9.34c0-1.28,0-2.39,0-3.5,0-4.69,1.78-7.08,6.14-8.68,1.93-.7,3.77-1.6,5.66-2.4a7.62,7.62,0,0,1,8.61,1.3c1.2,1.07,2.33,2.21,3.37,3.2Z" transform="translate(-4.55 -0.94)"/><path class="cls-1" d="M45.69,99.69a41.13,41.13,0,1,1-41.14,41A41.2,41.2,0,0,1,45.69,99.69Zm-14,46.25c-4-10-2.75-17,3.75-22.11a16.45,16.45,0,0,1,25.88,8c1.58,4.94.65,9.58-1.9,14.08,7.09,3.11,10.7,8.45,11,16.13,9.83-10.35,12.32-30.63-1.69-44.56A32.78,32.78,0,0,0,22,118c-13.75,14.42-10.35,34.58-1.09,43.88C21.18,154.26,24.86,149,31.73,145.94Zm13.91,7.22c-2.73,0-5.47,0-8.2,0a8.18,8.18,0,0,0-8.2,8.13c-.07,2,.09,3.94,0,5.89a2.81,2.81,0,0,0,1.94,3.11,33,33,0,0,0,27.31.86c2.73-1.06,4.28-2.43,3.73-5.57a29.46,29.46,0,0,1-.05-4.1,8.19,8.19,0,0,0-8.27-8.32C51.11,153.11,48.38,153.16,45.64,153.16Zm8.25-16.39a8.22,8.22,0,1,0-8.22,8.16A8.28,8.28,0,0,0,53.89,136.77Z" transform="translate(-4.55 -0.94)"/><path class="cls-1" d="M169.08,140.63A41.13,41.13,0,1,1,210.17,182,41.19,41.19,0,0,1,169.08,140.63Zm55,5.29c7.08,3.09,10.61,8.47,11,16.15,11.79-12.53,10.4-33.67-2.72-45.57a32.74,32.74,0,0,0-47.07,2.94c-12.75,14.82-8.27,34.4.2,42.41.24-7.67,4-12.91,10.87-16-4.16-9.34-2.83-17,3.76-22.11a16.29,16.29,0,0,1,20.23,0C226.92,128.91,228.28,136.64,224.07,145.92Zm-13.87,7.24c-2.56,0-5.12,0-7.69,0-5.26.05-8.67,3.42-8.75,8.63,0,1.79.11,3.59,0,5.38a2.8,2.8,0,0,0,1.92,3.12,32.41,32.41,0,0,0,27.05.92c4-1.61,4-1.64,4-5.85,0-1,0-2.05,0-3.07,0-5.8-3.29-9.1-9-9.14Zm0-8.23a8.22,8.22,0,1,0-8.21-8.17A8.31,8.31,0,0,0,210.2,144.93Z" transform="translate(-4.55 -0.94)"/><path class="cls-1" d="M49.67,50.47v7.9H41.73v-7.9Z" transform="translate(-4.55 -0.94)"/><path class="cls-1" d="M58.07,58.34V50.52h8v7.82Z" transform="translate(-4.55 -0.94)"/><path class="cls-1" d="M197.69,58.44h-7.91v-7.9h7.91Z" transform="translate(-4.55 -0.94)"/><path class="cls-1" d="M206.26,50.37h7.86v8h-7.86Z" transform="translate(-4.55 -0.94)"/><path class="cls-1" d="M49.7,67v7.86h-8V67Z" transform="translate(-4.55 -0.94)"/><path class="cls-1" d="M206.15,74.84V67h8v7.85Z" transform="translate(-4.55 -0.94)"/><path class="cls-1" d="M41.69,83.34h7.92v8H41.69Z" transform="translate(-4.55 -0.94)"/><path class="cls-1" d="M206.28,83.34h7.9v7.91h-7.9Z" transform="translate(-4.55 -0.94)"/><path class="cls-1" d="M127.85,83.23a28.79,28.79,0,1,1,28.88-28.7A28.89,28.89,0,0,1,127.85,83.23Zm-20.47-29a20.56,20.56,0,1,0,20.81-20.38A20.62,20.62,0,0,0,107.38,54.26Z" transform="translate(-4.55 -0.94)"/><path class="cls-1" d="M115.6,54.18c0-3.68,0-7.36,0-11,0-4.6,3-6.41,7-4.1q9.62,5.66,19.14,11.47c3.63,2.22,3.64,5.64,0,7.86q-9.51,5.82-19.13,11.48c-3.91,2.3-6.93.49-7-4.11C115.58,61.89,115.6,58,115.6,54.18ZM124,49.49V59.4l8.22-5Z" transform="translate(-4.55 -0.94)"/></svg>