<?xml version="1.0" encoding="utf-8"?>
<!-- Generator: Adobe Illustrator 26.0.0, SVG Export Plug-In . SVG Version: 6.00 Build 0)  -->
<svg version="1.1" id="Layer_1" xmlns="http://www.w3.org/2000/svg" xmlns:xlink="http://www.w3.org/1999/xlink" x="0px" y="0px"
	 viewBox="0 0 211.3 228.7" style="enable-background:new 0 0 211.3 228.7;" xml:space="preserve">
<style type="text/css">
	.st0{fill:#FFFFFF;}
</style>
<path class="st0" d="M131.4,0c1.2,1,2.5,2,3.7,3.1c13.8,12.9,27.5,25.8,41.2,38.6c1.7,1.5,2.7,3.7,2.6,5.9
	c-0.1,19.7,0,39.4-0.1,59.2c-0.1,1.3,0.5,2.6,1.7,3.3c17.1,10.9,27.4,26.1,30.1,45.3c4.8,33.3-18.4,64.8-54.2,71.8
	c-20.8,4.1-39.8-0.2-56.7-12.3c-1.3-1-2.9-1.5-4.5-1.5c-27.1,0.1-54.2,0.1-81.4,0c-9.1,0-13.9-4.6-13.9-13.1
	C0.1,138.6,0.2,76.9,0,15.2C0,8,2,2.6,9.6,0L131.4,0z M126,7.7c-1,0-1.6-0.1-2.2-0.1c-36.6,0-73.3,0-109.9,0c-4.2,0-5.6,1.4-5.6,5.5
	v187.3c0,4.1,1.4,5.4,5.9,5.4h73c0.7,0,1.3-0.1,2.4-0.2c-10.7-12.3-16.1-26.1-16.3-41.5c-1.7-0.4-3.1-0.7-4.4-1.1
	c-5.1-1.8-8.4-6.9-7.7-11.8c0.7-5.2,5.2-10.1,10.5-9.9c4.9,0.1,7.2-1.6,8.8-5.8c1.3-3.3,3.7-6.3,5.7-9.7c-4.2,0-8.2,0.1-12.2,0
	c-8.9-0.2-14.7-7.2-12.3-14.7c1.7-5.2,6.4-8.3,12.9-8.3c14.1,0,28.2,0,42.3,0c1.6,0,3.3-0.2,4.9-0.7c13-3.9,26.9-4,40-0.3
	c2.9,0.8,5.8,1.8,8.8,2.8v-55h-30.8c-8.8,0-13.7-4.6-13.7-12.8c0-8.8,0-17.6,0-26.3L126,7.7z M81.4,164c0.2,31.3,26.6,57,60.8,57
	s60.8-25.6,60.8-57.2s-27.4-57-60.8-57S81.4,132.5,81.4,164z M164,41.9L134.3,14c0,7.9,0,16.2,0,24.4c0,2,1.7,3.4,4.2,3.4
	C147.1,42,155.6,41.9,164,41.9z M102.6,110.6c-9.9,0-19.2,0-28.6,0c-3,0-4.9,1.6-4.8,3.8c0.1,2.2,1.8,3.6,4.8,3.6
	c5.9,0,11.9,0,17.8,0c0.8,0,1.5-0.2,2.2-0.6C96.8,115.4,99.5,113.2,102.6,110.6L102.6,110.6z M73.6,156.1l1.4-7.3
	c-3.4-0.4-5.3,0.6-5.7,3S70.4,155.7,73.6,156.1L73.6,156.1z"/>
<path class="st0" d="M111.6,87.7c-12.4,0-24.7,0-37.1,0c-6.8,0-11.4-3-13-8.4c-2.2-7,3.3-14.2,11.1-14.4c4.4-0.2,8.9,0,13.3,0
	c21.3,0,42.7,0,64,0c6.9,0,11.8,4.1,12.5,10.4c0.5,6.2-4.1,11.7-10.3,12.2c-0.1,0-0.3,0-0.4,0c-7.4,0.3-14.9,0.2-22.4,0.2
	C123.5,87.7,117.6,87.7,111.6,87.7z M111.7,80h36.8c0.8,0,1.6,0,2.4-0.1c2-0.4,3.3-1.5,3.3-3.5c0.2-1.9-1.2-3.5-3-3.7
	c-0.9-0.2-1.9-0.3-2.8-0.3c-24.5,0-49,0-73.4,0c-1,0-2,0.1-3,0.4c-1.9,0.4-3,2.2-2.6,4.1c0,0.2,0.1,0.3,0.1,0.5
	c0.7,2.1,2.5,2.6,4.7,2.6C86.7,80,99.2,80,111.7,80L111.7,80z"/>
<path class="st0" d="M89.3,49.5c-5.2,0-10.5,0-15.7,0c-7-0.1-12.4-4.9-12.6-11.2s4.8-11.5,11.8-11.6c11.3-0.2,22.6-0.2,34,0.1
	C113,27,118,32.1,118,38.3c-0.3,6.2-5.4,11.1-11.6,11.2C100.7,49.6,95,49.5,89.3,49.5L89.3,49.5z M89.5,34.3c-5.1,0-10.1,0-15.2,0
	c-3.2,0-5.1,1.4-5.1,3.8s1.9,3.7,4.9,3.8c10.2,0,20.4,0,30.7,0c3.1,0,4.8-1.5,4.8-3.9s-1.7-3.7-4.9-3.7
	C99.7,34.3,94.6,34.3,89.5,34.3z"/>
<path class="st0" d="M20.4,117.9c0.1-2.1,0-4.2,0.5-6.2c1.3-4.8,4.7-8,10-8.5c3.9-0.4,7.9-0.4,11.8,0c5.7,0.5,10.1,5.2,10.2,10.9
	c0.1,2.5,0.1,5.1,0,7.6c-0.1,6.4-4.3,11-11,11.6c-3.5,0.4-7.1,0.4-10.7,0c-6.4-0.7-10.5-5.1-10.8-11.1
	C20.4,120.7,20.4,119.3,20.4,117.9L20.4,117.9z M36.7,110.6L36.7,110.6c-1.2,0-2.4,0-3.6,0c-3,0.1-4.4,1.5-4.5,4.3
	c0,2.1,0,4.3,0,6.4c0.1,2.8,1.4,4.1,4.3,4.2c2.4,0.1,4.9,0.1,7.3,0c3-0.1,4.4-1.5,4.5-4.3c0.1-1.9,0-3.9,0-5.8
	c0-3.6-1.4-4.9-5.3-4.9C38.5,110.6,37.6,110.6,36.7,110.6L36.7,110.6z"/>
<path class="st0" d="M20.2,42c0.1-2.4,0.3-4.7,0.8-7c1.3-4.7,5.5-7.9,10.7-8.1c3.4-0.2,6.8-0.2,10.2,0c5.9,0.2,10.6,4.8,11,10.7
	c0.1,2.9,0.1,5.8,0,8.7c-0.2,6-5.4,10.8-11.8,10.9c-2.7,0.1-5.4,0-8.1,0c-7.2-0.1-12.2-4.6-12.5-11.4c-0.1-1.3,0-2.5,0-3.8L20.2,42z
	 M28.6,41.9c0,7.2,0.5,7.7,8.2,7.7c7.5,0,8-0.5,8-7.6s-0.4-7.6-8.2-7.6S28.6,34.7,28.6,41.9z"/>
<path class="st0" d="M20.2,156.1c0.1-2.4,0.4-4.7,0.8-7c1.4-4.7,5.7-7.9,10.5-8c3.4-0.2,6.8-0.2,10.2,0c5.9,0.2,10.7,4.9,11,10.9
	c0.1,2.8,0.1,5.6,0,8.5c-0.2,6-5.3,10.8-11.7,11c-2.9,0.1-5.9,0.1-8.8,0c-6.5-0.1-11.5-4.8-11.8-10.9c-0.1-1.5,0-3,0-4.5L20.2,156.1
	z M28.6,156.2c0,0.9,0,1.8,0,2.7c0,3.5,1.5,4.9,5.3,5c1,0,2,0,3.1,0c7.1,0,7.8-0.6,7.8-7.4c0-7.4-0.4-7.8-8.2-7.8
	C29,148.7,28.6,149,28.6,156.2L28.6,156.2z"/>
<path class="st0" d="M53.1,80.1c-0.1,2.4-0.4,4.7-0.8,7c-1.4,4.6-5.5,7.8-10.3,7.9c-3.6,0.2-7.1,0.2-10.7,0
	c-5.8-0.2-10.4-4.8-10.8-10.6c-0.1-3-0.1-6,0-8.9c0.3-6,5.3-10.6,11.7-10.8c2.8-0.1,5.7-0.1,8.6,0c6.8,0.1,12,4.9,12.1,11.3
	c0,1.3,0,2.7,0,4L53.1,80.1z M36.6,87.6c7.8,0,8.2-0.4,8.2-7.6s-0.6-7.6-8-7.6c-7.7,0-8.2,0.4-8.2,7.7S29,87.6,36.6,87.6z"/>
<path class="st0" d="M142.4,114.3c29.1,0,52.8,22.3,52.8,49.5s-23.8,49.5-52.8,49.6c-29.2,0-52.9-22.3-52.8-49.7
	S113.2,114.3,142.4,114.3z M186.8,163.9c0-23.1-20-41.9-44.6-41.9s-44.6,18.9-44.7,41.9s20,41.9,44.6,41.9S186.8,186.9,186.8,163.9z
	"/>
<path class="st0" d="M138.1,148.7c0-5-0.1-10,0-15c-0.1-2.2,1.6-4.1,3.8-4.2c0.1,0,0.1,0,0.2,0c2.2-0.1,3.9,1.5,4.2,4
	c0.1,0.7,0.1,1.3,0,2c0,8,0.1,15.9-0.1,23.9c-0.1,1.9,0.7,3.7,2.2,4.9c5.3,4.8,10.5,9.8,15.7,14.6c0.7,0.6,1.3,1.3,1.8,2
	c1,1.4,0.8,3.4-0.6,4.5c-1.4,1.4-3.5,1.9-4.9,0.6c-7.3-6.7-14.5-13.5-21.7-20.4c-0.6-0.6-0.7-2-0.7-3
	C138.1,158.1,138.1,153.4,138.1,148.7z"/>
</svg>
