<?xml version="1.0" encoding="utf-8"?>
<!-- Generator: Adobe Illustrator 26.0.0, SVG Export Plug-In . SVG Version: 6.00 Build 0)  -->
<svg version="1.1" id="Layer_1" xmlns="http://www.w3.org/2000/svg" xmlns:xlink="http://www.w3.org/1999/xlink" x="0px" y="0px"
	 viewBox="0 0 213.3 230.4" style="enable-background:new 0 0 213.3 230.4;" xml:space="preserve">
<style type="text/css">
	.st0{fill:#FFFFFF;}
</style>
<path class="st0" d="M211.1,0c1.6,0.9,2.5,2.7,2.3,4.5c0,39.4,0,78.9,0,118.3c0,3.6-1,4.7-4.7,4.7c-21.1,0-42.2,0-63.2,0
	c-0.6,0-1.2,0-1.8-0.1c-1.7-0.1-3-1.5-3-3.1c-0.2-1.7,1.1-3.3,2.8-3.5c0.7-0.1,1.5-0.1,2.2-0.1h60.7V39.1h-96.9v59.6
	c3.8,0,7.6,0,11.4,0c4.9,0.1,9,2.8,10.3,7.2c0.4,1.6,0.6,3.2,0.6,4.9c0,26.7,0,53.4,0,80.1c0,9.3,0,18.6,0,27.9
	c0,7.3-4.3,11.6-11.6,11.6c-36.3,0-72.6,0-108.9,0C4.3,230.3,0,226.1,0,219c0-21.3,0-42.6,0-63.9c-0.1-0.7,0-1.3,0.1-2
	c0.3-1.6,1.7-2.8,3.4-2.7c1.7,0,3.1,1.2,3.2,2.9c0.1,0.7,0.1,1.5,0,2.2v62.5c0,4.5,1.1,5.5,5.6,5.5c26.5,0,53.1,0,79.6,0
	c1.4,0.1,2.8-0.5,3.7-1.5c9.2-9.3,18.5-18.4,27.6-27.7c0.9-0.9,1.4-2.2,1.5-3.5c0.1-26.8,0.1-53.5,0.1-80.3c0-4-1-5-5.1-5H12
	c-4.2,0-5.2,1-5.3,5.3v25.4c0,0.6,0,1.2,0,1.8c0,1.9-1.5,3.4-3.4,3.4c0,0,0,0-0.1,0c-1.8,0-3.3-1.5-3.3-3.4c0-10-0.2-20.1,0.1-30.1
	c0.1-5.4,5-9.4,11-9.4c10,0,20.1,0,30.1,0h61.3v-3c0-30.1,0-60.3,0-90.4c0-2.1,0.3-3.8,1.9-5.2L211.1,0z M206.5,6.9h-97v25h97V6.9z
	 M104.1,223.6c5.6,0,10.9,0,16.2,0c3.2,0,4.5-1.3,4.5-4.5c0-4.9,0-9.8,0-14.6c0-0.5-0.1-0.9-0.3-1.4L104.1,223.6z"/>
<path class="st0" d="M65.9,113.8h42.7c4.3,0,5.1,0.9,5.1,5.1c0,2.9,0,5.7,0,8.5c0,4.6-0.8,5.4-5.3,5.4H22.9c-4,0-4.9-0.9-4.9-4.9
	c0-3.3,0-6.6,0-9.9s1.1-4.3,4.4-4.3H65.9z M24.8,125.9h82v-5.2h-82L24.8,125.9z"/>
<path class="st0" d="M182.8,150.7c7.1,0,14.2,0,21.4,0c5.8,0,9.2,3.5,9.2,9.3c0,8.2,0,16.3,0,24.5c0,5.5-3.4,9-8.9,9.1
	c-14.5,0-29.1,0-43.6,0c-5.3,0-8.8-3.4-8.9-8.7c-0.1-8.5-0.1-16.9,0-25.4c0.1-5.4,3.7-8.7,9.1-8.7
	C168.2,150.7,175.5,150.7,182.8,150.7z M182.8,186.7c7,0,14.1,0,21.1,0c1.9,0,2.7-0.8,2.7-2.7c0-7.9,0-15.9,0-23.8
	c0-2-0.8-2.9-2.8-2.9c-14.1,0-28.2,0-42.3,0c-2.1,0-2.8,0.8-2.8,2.8c0.1,7.9,0,15.7,0,23.6c0,2.6,0.3,2.9,3,2.9
	C168.8,186.7,175.8,186.8,182.8,186.7L182.8,186.7z"/>
<path class="st0" d="M40.9,72.8c1.3-1.4,2.6-2.8,4-4.2c1.6-1.6,3.6-1.6,5-0.2s1.3,3.4-0.2,5c-3.7,3.8-7.4,7.5-11.1,11.1
	c-1.9,1.8-3.6,1.8-5.5-0.1c-3.7-3.6-7.4-7.3-11-11c-1.7-1.8-1.8-3.7-0.3-5.1s3.3-1.3,5,0.3c2,1.9,3.9,3.8,6,5.9
	c0.8-3,1.4-5.6,2.2-8.1c6.8-20.9,26-35.2,48-35.7c2.8-0.1,4.4,1.1,4.5,3.2s-1.6,3.6-4.4,3.7C63,38.2,45.6,52.1,40.6,71.6
	c-0.1,0.3-0.1,0.6-0.1,0.9L40.9,72.8z"/>
<path class="st0" d="M166.9,94.1c4.4,0,8.4,0,12.4,0c0.9,0,1.8,0.1,2.6,0.3c1.6,0.6,2.6,2,2,3.5c-0.4,1.1-1.7,2.7-2.7,2.8
	c-7.1,0.2-14.2,0.2-21.3,0c-2.6-0.1-3.8-3.1-2.4-5.5c1-1.7,2.3-3.2,3.4-4.8c3.9-5.4,7.9-10.8,11.7-16.2c1.1-1.6,2-3.3,2.6-5.2
	c1.1-3.3-0.6-6.8-3.8-7.9c-0.1,0-0.1,0-0.2-0.1c-3.1-1.2-6.7,0.1-8.3,3c-0.2,0.4-0.4,0.8-0.5,1.2c-0.9,2.7-2.6,3.9-4.5,3.3
	c-2.1-0.7-2.9-2.7-2.1-5.4c2.3-7.1,9.9-11.1,17.1-8.8c0.1,0,0.1,0,0.2,0.1c7.4,2.6,11.1,10.2,8.2,17.4c-1.3,3.1-3,6-4.9,8.8
	C173.5,85.1,170.2,89.4,166.9,94.1z"/>
<path class="st0" d="M80.1,153.8c-9.5,0-19,0-28.6,0c-0.9,0-2.1,0.1-2.6-0.4c-0.9-0.9-2.1-2.3-2-3.3s1.5-2.1,2.5-2.9
	c0.6-0.4,1.6-0.2,2.4-0.2h56.7c3.5,0,5.3,1.2,5.2,3.5s-1.8,3.3-5.2,3.3L80.1,153.8z"/>
<path class="st0" d="M140.2,61.2c-1.8,0-3.3,0-4.8,0c-1.8,0.1-3.4-1.3-3.5-3.1c0-0.1,0-0.3,0-0.4c0-2,1.3-3.2,3.5-3.2
	c2.6,0,5.2,0,7.9,0s3.8,1.2,3.9,3.8c0,0.4,0,0.8,0,1.1c0,12.1,0,24.3,0,36.4c0,0.9-0.1,1.8-0.3,2.6c-0.5,1.6-1.8,2.7-3.4,2.2
	c-1.2-0.5-2.3-1.4-3-2.5c-0.5-0.6-0.3-1.7-0.3-2.6c0-10.5,0-21,0-31.4L140.2,61.2z"/>
<path class="st0" d="M18,177.4c0-1.9,0-3.9,0-5.8c0.1-2.4,1.3-3.7,3.6-3.7c4-0.1,7.9-0.1,11.9,0c1.8-0.2,3.4,1.2,3.5,2.9
	c0,0.2,0,0.4,0,0.6c0.1,4,0.1,8.1,0,12.1c0.1,1.8-1.2,3.4-3,3.5c-0.2,0-0.4,0-0.6,0c-4,0.1-7.9,0.1-11.9,0c-2.4-0.1-3.5-1.4-3.5-3.8
	C17.9,181.3,18,179.4,18,177.4z M24.9,174.8v5.2h5.1v-5.2H24.9z"/>
<path class="st0" d="M37,204.5c0,2,0.1,4,0,6.1c0.1,1.8-1.2,3.4-3.1,3.5c-0.2,0-0.3,0-0.5,0c-4,0.1-8,0.1-11.9,0
	c-2.3,0-3.5-1.4-3.5-3.7c-0.1-3.9-0.1-7.8,0-11.7c0-2.4,1.3-3.7,3.8-3.8c3.8-0.1,7.6-0.1,11.5,0c2.5,0,3.7,1.3,3.8,3.8
	C37.1,200.7,37,202.5,37,204.5L37,204.5z M24.9,207h5.3v-5.2h-5.2L24.9,207z"/>
<path class="st0" d="M18,150.3c0-2-0.1-4,0-6.1c-0.1-1.8,1.2-3.3,3-3.4c0.1,0,0.3,0,0.4,0c4,0,8.1,0,12.1,0c2.1,0,3.4,1.2,3.5,3.3
	c0.1,4.1,0.1,8.2,0,12.3c0.2,1.7-1.1,3.2-2.7,3.4c-0.1,0-0.3,0-0.4,0c-4.3,0.1-8.5,0.1-12.8,0c-1.7,0-3-1.3-3-3c0-0.1,0-0.2,0-0.2
	C17.9,154.5,18,152.4,18,150.3z M30.1,153v-5.3h-5.1v5.3L30.1,153z"/>
<path class="st0" d="M69.5,207.9H51.1c-2.7,0-4.2-1.2-4.2-3.3s1.5-3.5,4.3-3.5h37.1c2.6,0,4.1,1.2,4.1,3.4s-1.4,3.3-4.1,3.3
	L69.5,207.9z"/>
<path class="st0" d="M93.8,174.1c5.3,0,10.6,0,16,0c2.5,0,4.1,1.4,4.1,3.4s-1.6,3.3-4,3.3c-10.7,0-21.4,0-32.1,0
	c-2.5,0-4.1-1.4-4-3.5s1.5-3.3,4-3.3C83,174.1,88.4,174.1,93.8,174.1z"/>
<path class="st0" d="M55.1,174.1c1.7,0,3.4-0.1,5.2,0c1.7,0,3.2,1.4,3.2,3.1c0,0,0,0,0,0c0.2,1.8-1.1,3.4-2.9,3.5c0,0-0.1,0-0.1,0
	c-3.5,0.1-7,0.1-10.5,0c-1.8-0.1-3.1-1.6-3-3.4c0-0.1,0-0.1,0-0.2c0-1.7,1.5-3.1,3.2-3.1c0,0,0,0,0,0
	C51.8,174,53.4,174.1,55.1,174.1z"/>
<path class="st0" d="M185.3,14.7c2.6,0,4.8,2,4.9,4.6c0.1,2.7-2,4.8-4.7,4.9c-2.7,0.1-4.8-2-4.9-4.7c0,0,0,0,0,0
	C180.7,16.9,182.7,14.8,185.3,14.7z"/>
<path class="st0" d="M130.4,14.7c2.5-0.1,4.7,1.9,4.7,4.5c0,0.1,0,0.1,0,0.2c0,2.6-2.1,4.8-4.7,4.9c0,0-0.1,0-0.1,0
	c-2.6-0.1-4.6-2.2-4.7-4.8C125.7,16.8,127.8,14.7,130.4,14.7z"/>
<path class="st0" d="M183.3,175.5c-2.6,0-5.3,0-7.9,0c-1.8,0.1-3.4-1.2-3.5-3c0-0.1,0-0.2,0-0.2c-0.1-1.8,1.4-3.4,3.2-3.5
	c0.1,0,0.2,0,0.4,0c5.2,0,10.5,0,15.7,0c1.9-0.1,3.4,1.4,3.5,3.2c0.1,1.9-1.4,3.4-3.2,3.5c-0.1,0-0.2,0-0.4,0
	C188.6,175.5,185.9,175.5,183.3,175.5z"/>
</svg>
