<?xml version="1.0" encoding="utf-8"?>
<!-- Generator: Adobe Illustrator 26.0.0, SVG Export Plug-In . SVG Version: 6.00 Build 0)  -->
<svg version="1.1" id="Layer_1" xmlns="http://www.w3.org/2000/svg" xmlns:xlink="http://www.w3.org/1999/xlink" x="0px" y="0px"
	 viewBox="0 0 226.6 226.7" style="enable-background:new 0 0 226.6 226.7;" xml:space="preserve">
<style type="text/css">
	.st0{fill:#FFFFFF;}
</style>
<path class="st0" d="M117.1,207.8v-7.5h93.4c5.7,0,8.8-3.4,8.4-9.4c-4.2,2.4-8.7,1.9-13.1,1.9h-81v-7.5h85.7c5.7,0,8.8-3.5,8.4-9.5
	c-4,2.4-8.4,1.9-12.6,1.9c-24.9,0-49.9,0-74.8,0h-2.9v-7.4h52.6c0-1,0.1-1.8,0.1-2.5c0-6.7,0-13.4,0-20.1
	c-0.1-8.3,6.4-15.1,14.7-15.3c0.2,0,0.3,0,0.5,0c6.7,0,13.4,0,20.1,0h2.4V64.4H53v33.7h-7.6V30.9c0-9.4,6.4-15.8,15.8-15.8
	c2.2,0,4.4,0,6.9,0c-0.4-4.9,0-9.3,4-12.5c2.2-1.8,5-2.8,7.9-2.6c3.7,0.2,7,1.7,8.6,5c1.5,3,1.9,6.4,2.9,10h14.3
	c-0.4-4.7,0-9,3.9-12.3c2.2-1.8,4.7-3.1,7.6-2.6c2.3,0.2,4.5,1,6.5,2.3c1.8,1.5,3.2,3.4,4,5.6c0.8,2.1,0.6,4.6,0.9,7h14.9
	c0-1.2,0-2.5,0-3.8c0-6.3,5.1-11.3,11.3-11.3s11.3,5.1,11.3,11.3c0,1.2,0,2.5,0,3.8h15.1c0-1.2,0-2.4,0-3.7
	c0-6.3,5.1-11.3,11.4-11.3s11.3,5.1,11.3,11.4c0,1.1,0,2.2,0,3.7c2.4,0,4.7,0,7,0c9.1,0,15.6,6.4,15.6,15.6c0,53.8,0,107.6,0,161.5
	c0,9.1-6.5,15.6-15.6,15.6c-30.5,0-61.1,0-91.6,0L117.1,207.8z M90.9,22.8c-0.3,2.4,0,4.8-0.8,6.9c-0.8,2.2-2.1,4.1-3.9,5.7
	c-1.9,1.3-4,2.1-6.2,2.4c-2.9,0.5-5.6-0.6-7.9-2.5c-4-3.2-4.5-7.7-4-12.5h-6.4c-5.7,0-8.8,3-8.8,8.7c0,7.7,0,15.4,0,23.1
	c0,0.7,0.1,1.3,0.1,2H219c0-9,0.1-17.8,0-26.6c0.1-3.4-2.4-6.3-5.7-6.9c-3.1-0.4-6.2-0.5-9.4-0.5c0,1.6,0,2.7,0,3.8
	c0,6.3-5,11.3-11.3,11.4c-6.3,0-11.3-5-11.4-11.3c0,0,0,0,0,0c0-1.2,0-2.4,0-3.7h-15.2c0,1.3,0,2.6,0,3.8c0,6.3-5.1,11.3-11.3,11.3
	c-6.3,0-11.3-5.1-11.3-11.3l0,0c0-1.3,0-2.6,0-4h-14.8c-0.3,2.6-0.1,5.1-0.9,7.2c-0.8,2.2-2.2,4.1-4,5.6c-2,1.2-4.2,2-6.5,2.3
	c-2.8,0.4-5.4-0.8-7.6-2.6c-3.9-3.2-4.3-7.6-3.9-12.3L90.9,22.8z M188.9,163.7l23.9-23.9c-5.6,0-11.3-0.2-17.1,0.1
	c-3.6,0.2-6.4,3-6.7,6.5C188.7,152.3,188.9,158.1,188.9,163.7L188.9,163.7z M195,169.9c-0.1-0.1,0,0.1,0.2,0.1c5.5,0,11,0.1,16.5,0
	c3.7,0,6.9-2.9,7.1-6.6c0.3-5.8,0.1-11.7,0.1-17.4C211,153.9,203,161.9,195,169.9L195,169.9z M83.1,18.8c0-2.2,0-4.4,0-6.6
	c0-2.9-1.6-4.7-3.8-4.7s-3.7,1.8-3.7,4.5c0,4.5,0,9.1,0,13.6c0,2.7,1.6,4.5,3.8,4.4s3.7-1.8,3.7-4.6C83.1,23.4,83.1,21.1,83.1,18.8z
	 M120.9,18.8c0-2.3,0-4.6,0-6.8c-0.1-2.7-1.6-4.5-3.9-4.4s-3.7,1.8-3.7,4.3c0,4.6,0,9.2,0,13.9c0,2.7,1.6,4.5,3.8,4.4
	s3.6-1.8,3.7-4.3C120.9,23.5,120.9,21.2,120.9,18.8L120.9,18.8z M151.1,19c0,2.3,0,4.5,0,6.8c0,2.7,1.6,4.5,3.8,4.4s3.7-1.8,3.7-4.3
	c0.1-4.6,0.1-9.2,0-13.9c0-2.7-1.6-4.5-3.9-4.4s-3.6,1.8-3.7,4.3C151,14.3,151.1,16.6,151.1,19L151.1,19z M188.8,19
	c0,2.3,0,4.5,0,6.8c0.1,2.7,1.6,4.5,3.9,4.4s3.7-1.8,3.7-4.3c0-4.6,0-9.2,0-13.9c0-2.7-1.6-4.5-3.9-4.4s-3.6,1.8-3.7,4.3
	C188.8,14.3,188.8,16.6,188.8,19L188.8,19z"/>
<path class="st0" d="M16,125l5.6,5.2c-1.1,1.3-2.1,2.6-3.1,3.9c-17.8,23.2-13.4,56.3,9.8,74.1c5.7,4.4,12.3,7.6,19.3,9.3
	c29.5,7.6,59.7-12.1,64.8-42.4c1.6-9.3,0.7-18.8-2.7-27.6c-1-2.1-0.8-4.5,0.5-6.4c2.2-3.4,4.2-7,6.5-11c-4.2,0.8-7.9,1.5-11.6,2.3
	c-2.1,0.6-4.5-0.1-5.9-1.8c-17.8-19.6-47.3-22.9-69-7.9c-0.5,0.3-1,0.7-1.7,1.1l-4.5-6c6.1-4.8,13.1-8.2,20.7-10.1
	c22.2-5.3,41.7-0.2,58.2,15.6c0.9,1,2.2,1.4,3.5,1c5.4-1.2,10.9-2.2,16.4-3.3c1.8-0.4,3.5-0.3,4.7,1.3c1.2,1.6,0.8,3.4-0.2,5
	c-3.2,5.3-6.3,10.5-9.4,15.8c-0.6,1-0.7,2.3-0.4,3.4c11.5,35-9.2,71.1-45.2,78.8c-32.1,6.8-64.3-14.3-71-46.6
	c-4.1-19.8,0.7-37.3,13.8-52.7C15.4,125.8,15.7,125.5,16,125z"/>
<path class="st0" d="M79.1,86.8h-7.2v-7.3h7.2L79.1,86.8z"/>
<path class="st0" d="M109.3,86.8h-7.2v-7.3h7.2L109.3,86.8z"/>
<path class="st0" d="M132.2,86.8v-7.3h7.3v7.3H132.2z"/>
<path class="st0" d="M169.8,79.5v7.2h-7.3v-7.2H169.8z"/>
<path class="st0" d="M200.1,79.5v7.2h-7.3v-7.2H200.1z"/>
<path class="st0" d="M102.2,109.6h7.2v7.3h-7.2L102.2,109.6z"/>
<path class="st0" d="M132.4,109.6h7.2v7.3h-7.2L132.4,109.6z"/>
<path class="st0" d="M162.5,109.7h7.3v7.3h-7.3L162.5,109.7z"/>
<path class="st0" d="M192.7,116.9v-7.2h7.3v7.2L192.7,116.9z"/>
<path class="st0" d="M139.6,147.2h-7.3v-7.3h7.3L139.6,147.2z"/>
<path class="st0" d="M162.6,139.8h7.2v7.3h-7.2V139.8z"/>
<path class="st0" d="M23.3,173.1c0.3-1.1,1-2,2-2.5c1.3-0.7,2.9-0.6,4.1,0.3c0.3,0.2,0.6,0.5,0.8,0.7l16.2,16.2
	c0.2,0.2,0.3,0.4,0.7,0.8c0.2-0.3,0.4-0.6,0.6-0.9c14.6-14.6,29.2-29.2,43.9-43.9c1-1.2,2.6-1.7,4.1-1.3c2,0.6,3.1,2.7,2.5,4.7
	c-0.1,0.4-0.3,0.8-0.6,1.1c-0.2,0.3-0.5,0.6-0.7,0.8L50,196.1c-2,2-4.1,2-6,0c-6.4-6.4-12.8-12.8-19.2-19.2
	c-0.6-0.7-1.1-1.4-1.5-2.2L23.3,173.1z"/>
</svg>
