<?xml version="1.0" encoding="utf-8"?>
<!-- Generator: Adobe Illustrator 26.0.0, SVG Export Plug-In . SVG Version: 6.00 Build 0)  -->
<svg version="1.1" id="Layer_1" xmlns="http://www.w3.org/2000/svg" xmlns:xlink="http://www.w3.org/1999/xlink" x="0px" y="0px"
	 viewBox="0 0 219.9 228" style="enable-background:new 0 0 219.9 228;" xml:space="preserve">
<style type="text/css">
	.st0{fill:#FFFFFF;}
</style>
<path class="st0" d="M177,228H9.9c-1.7-1-3.8-1.5-5.1-2.9c-1.9-2.1-3.2-4.8-4.8-7.3V81.5c0.2-0.3,0.3-0.7,0.4-1
	c2-8.3,8.1-13.7,16.3-14.3c1.4-0.1,2.8,0,4.3,0V51.6H0V12c0.1-0.2,0.2-0.4,0.3-0.6C2.6,3.7,7.5,0,15.2,0h132.8
	c9.5,0,15.3,6.1,15.3,16v64.8h3.1c5.3-0.1,10.3,2.2,13.7,6.2c3.1,3.7,4.8,8.4,4.5,13.3v10h2.6c6.3,0,12.6,0,18.9,0
	c1.5,0,3,0.1,4.5,0.4c7.7,2.1,11.2,9.9,8.3,18.1c-10.4,29.2-20.9,58.4-31.2,87.7C185.7,222.2,182.8,226.3,177,228z M93.7,220.6h79.5
	c4.4,0,5.7-0.9,7.2-5.1c10.6-29.6,21.2-59.2,31.8-88.9c1.9-5.4-0.3-8.9-5.9-8.9c-53.3,0-106.6,0-159.8,0c-3.8,0-5.2,1.1-6.6,4.8
	c-6.4,17.9-12.8,35.8-19.2,53.7c-4.3,12-8.6,24-12.9,36c-1.3,3.7-0.1,7,3,8c1.1,0.3,2.3,0.4,3.4,0.3L93.7,220.6z M156.1,110.3v-2.6
	c0-30.6-0.1-61.1,0.1-91.7c0-4.9-2.9-8.7-8.5-8.7c-39.5,0.1-79,0.1-118.6,0.1h-2.6c2,3.5,1.9,7.1,1.9,10.7c0,37.1,0,74.2,0,111.3
	v2.3c1.7-3.5,3.1-7.1,4.3-10.8c2.8-8,6.5-10.6,14.6-10.6L156.1,110.3L156.1,110.3z M21.2,73.8c-8.7-1.7-14.1,4.4-14.1,11.7
	c0.2,34.6,0.1,69.1,0.1,103.7c0,0.6,0.1,1.2,0.2,2.2c0.3-0.7,0.5-0.9,0.6-1.2c4.3-12,8.6-24,12.8-36c0.3-1,0.4-2,0.4-3
	c0-25,0-50,0-75L21.2,73.8z M21.1,44.1c0-10.4,0-20.4,0-30.5c-0.1-0.8-0.3-1.6-0.7-2.3c-1.7-3.4-5.8-4.9-9.3-3.2
	c-2.4,1.2-3.9,3.6-3.9,6.3c0,9.6,0,19.3,0,28.9c0,0.3,0.1,0.5,0.2,0.8C7.5,44.1,21.1,44.1,21.1,44.1z M177.4,110.2
	c0-4,0.2-7.8-0.1-11.5c-0.3-6.1-5.5-10.7-11.5-10.5c-0.8,0-1.6,0.2-2.4,0.4v21.6L177.4,110.2z"/>
<path class="st0" d="M183.2,191.3c-2.6,5.4-5.5,10.5-7.5,15.9c-1.8,5-4.6,6.4-9.7,6.2c-14.5-0.4-29.1-0.2-43.8-0.2
	c0.3-0.7,0.4-1.2,0.6-1.7c3-6.3,6-12.6,9.1-18.9c0.4-0.8,1.2-1.4,2.1-1.6c16.1-0.1,32.2-0.1,48.3-0.1
	C182.7,191.2,182.9,191.2,183.2,191.3z M171.6,198.6c-11.4,0-22.3,0-33.3,0c-0.6,0-1.2,0.2-1.6,0.7c-1.1,2-2,4.2-3.2,6.5
	c11.4,0,22.5,0,33.6,0c0.5-0.1,1-0.4,1.3-0.8C169.6,203,170.5,200.9,171.6,198.6L171.6,198.6z"/>
<path class="st0" d="M148.9,58.7H35.5V14.8h113.4V58.7z M42.7,22.2v29h99v-29L42.7,22.2z"/>
<path class="st0" d="M149,81v7H35.4v-7H149z"/>
<path class="st0" d="M127.6,95.8v7.1H35.5v-7.1L127.6,95.8z"/>
<path class="st0" d="M35.5,73.3v-7h74.4v7H35.5z"/>
<path class="st0" d="M149,95.7v7h-14v-7H149z"/>
</svg>
