<?xml version="1.0" encoding="utf-8"?>
<!-- Generator: Adobe Illustrator 26.0.0, SVG Export Plug-In . SVG Version: 6.00 Build 0)  -->
<svg version="1.1" id="Layer_1" xmlns="http://www.w3.org/2000/svg" xmlns:xlink="http://www.w3.org/1999/xlink" x="0px" y="0px"
	 viewBox="0 0 228.9 228.9" style="enable-background:new 0 0 228.9 228.9;" xml:space="preserve">
<style type="text/css">
	.st0{fill:#FFFFFF;}
</style>
<path class="st0" d="M79.9,87.7v-7.4h-7.3v7.4L79.9,87.7z M110.5,87.7v-7.4h-7.3v7.4L110.5,87.7z M133.6,87.6h7.3v-7.3h-7.4
	L133.6,87.6z M171.6,80.3h-7.4v7.3h7.3L171.6,80.3z M202.2,80.3h-7.4v7.3h7.4L202.2,80.3z M103.3,110.7v7.4h7.3v-7.4L103.3,110.7z
	 M133.8,110.7v7.4h7.2v-7.4L133.8,110.7z M164.2,110.7v7.4h7.3v-7.4L164.2,110.7z M194.7,118h7.4v-7.3h-7.4L194.7,118z M141.1,148.7
	v-7.4h-7.3v7.4L141.1,148.7z M164.3,141.2v7.4h7.2v-7.4L164.3,141.2z"/>
<path class="st0" d="M118.3,209.8v-7.6h94.3c5.8,0,8.9-3.5,8.5-9.5c-4.2,2.4-8.8,1.9-13.2,1.9H126V187h86.6c5.8,0,8.9-3.5,8.5-9.6
	c-4,2.4-8.5,1.9-12.8,1.9h-78.5v-7.5h53.1c0-1,0.1-1.8,0.1-2.6c0-6.8,0-13.5,0-20.3c-0.2-8.3,6.4-15.3,14.8-15.4c0.2,0,0.4,0,0.5,0
	c6.8,0,13.5,0,20.3,0h2.4V65H53.4v34h-7.7v-2.5c0-21.8,0-43.5,0-65.3c0-9.5,6.4-16,16-16h7c-0.4-4.9,0-9.4,4.1-12.7
	c2.2-1.9,5.1-2.8,8-2.6c3.7,0.2,7,1.7,8.7,5c1.5,3,2,6.5,3,10.1H107c-0.4-4.7,0-9.2,3.9-12.4c2.2-1.9,4.8-3.1,7.6-2.7
	c2.3,0.2,4.6,1,6.6,2.3c1.8,1.5,3.2,3.4,4.1,5.6c0.8,2.1,0.6,4.6,0.9,7.1h15c0-1.3,0-2.6,0-3.9c0-6.3,5.1-11.4,11.4-11.4
	c6.3,0,11.4,5.1,11.4,11.4c0,1.3,0,2.5,0,3.9h15.3c0-1.2,0-2.5,0-3.7c0-6.3,5.2-11.4,11.5-11.4s11.4,5.2,11.4,11.5
	c0,1.1,0,2.2,0,3.7h7.1c9.2,0,15.8,6.5,15.8,15.7c0,54.4,0,108.7,0,163.1c0,9.2-6.5,15.8-15.7,15.8L118.3,209.8L118.3,209.8z
	 M91.8,23c-0.3,2.4,0,4.9-0.8,6.9c-0.8,2.2-2.2,4.2-4,5.7c-1.9,1.3-4,2.1-6.3,2.4c-2.9,0.5-5.6-0.6-7.9-2.5c-4-3.3-4.5-7.8-4.1-12.7
	c-2.4,0-4.4,0-6.5,0c-5.8,0-8.9,3.1-8.9,8.8c0,7.8,0,15.6,0,23.4c0,0.7,0.1,1.4,0.1,2h167.7c0-9,0.1-17.9,0-26.8
	c0.1-3.4-2.4-6.4-5.8-7c-3.1-0.4-6.3-0.5-9.5-0.5c0,1.6,0,2.7,0,3.8c0,6.3-5.1,11.5-11.4,11.5c-6.3,0-11.5-5.1-11.5-11.4
	c0,0,0,0,0,0c0-1.2,0-2.5,0-3.7h-15.3c0,1.4,0,2.6,0,3.9c0,6.3-5.1,11.4-11.4,11.4S145,33.1,145,26.8l0,0c0-1.3,0-2.6,0-4h-15
	c-0.3,2.6-0.1,5.1-0.9,7.2c-0.8,2.2-2.2,4.2-4.1,5.6c-2,1.3-4.2,2-6.6,2.3c-2.9,0.4-5.4-0.8-7.7-2.6c-3.9-3.2-4.3-7.7-3.9-12.4
	L91.8,23z M190.8,165.3l24.2-24.1c-5.6,0-11.5-0.2-17.3,0.1c-3.6,0.1-6.5,3-6.7,6.6C190.6,153.8,190.8,159.7,190.8,165.3
	L190.8,165.3z M197,171.5c-0.1-0.1,0,0.1,0.2,0.1c5.6,0,11.1,0.1,16.7,0c3.8,0,6.9-2.9,7.2-6.7c0.3-5.9,0.1-11.8,0.1-17.6
	C213.1,155.5,205,163.5,197,171.5L197,171.5z M83.9,19c0-2.2,0-4.4,0-6.7c0-2.9-1.6-4.8-3.9-4.7s-3.7,1.8-3.8,4.6
	c0,4.6,0,9.2,0,13.8c0,2.7,1.6,4.5,3.9,4.5s3.7-1.8,3.8-4.6C83.9,23.6,83.9,21.3,83.9,19z M122.1,19c0-2.3,0-4.6,0-6.9
	c-0.1-2.7-1.7-4.5-3.9-4.5s-3.7,1.8-3.7,4.4c-0.1,4.7-0.1,9.3,0,14c0,2.7,1.6,4.5,3.9,4.5s3.7-1.8,3.7-4.4
	C122.1,23.8,122.1,21.4,122.1,19L122.1,19z M152.6,19.2c0,2.3,0,4.6,0,6.9c0,2.7,1.7,4.5,3.9,4.5s3.7-1.8,3.7-4.4
	c0.1-4.7,0.1-9.3,0-14c0-2.7-1.7-4.5-3.9-4.5s-3.7,1.8-3.7,4.4C152.5,14.4,152.6,16.8,152.6,19.2L152.6,19.2z M190.7,19.2
	c0,2.3,0,4.6,0,6.9c0,2.7,1.6,4.5,3.9,4.5s3.7-1.8,3.7-4.4c0-4.7,0-9.3,0-14c0-2.7-1.7-4.5-3.9-4.5s-3.7,1.8-3.7,4.4
	C190.7,14.4,190.7,16.8,190.7,19.2L190.7,19.2z"/>
<path class="st0" d="M16.2,126.3l5.6,5.2c-1.1,1.3-2.1,2.6-3.1,3.9c-17.9,23.4-13.5,56.9,9.9,74.8c5.8,4.4,12.4,7.6,19.5,9.4
	c29.8,7.7,60.2-12.2,65.5-42.8c1.6-9.3,0.7-19-2.7-27.8c-1-2.1-0.8-4.6,0.6-6.5c2.2-3.5,4.2-7,6.6-11.1c-4.3,0.8-8,1.5-11.7,2.3
	c-2.2,0.6-4.5-0.1-5.9-1.9c-17.9-19.8-47.8-23.2-69.7-7.9l-1.8,1.1l-4.6-6c6.2-4.9,13.3-8.3,20.9-10.2c22.4-5.4,42.1-0.2,58.8,15.7
	c0.9,1,2.3,1.4,3.5,1c5.5-1.2,11-2.2,16.5-3.4c1.8-0.4,3.5-0.3,4.7,1.3s0.8,3.4-0.2,5.1c-3.2,5.3-6.4,10.6-9.5,16
	c-0.6,1.1-0.7,2.3-0.4,3.4c11.6,35.4-9.3,71.8-45.7,79.5c-32.4,6.9-65-14.4-71.7-47c-4.1-20,0.7-37.7,13.9-53.2
	C15.6,127.1,15.8,126.8,16.2,126.3z"/>
<path class="st0" d="M76.3,152.6h17.8c3.9,0,5,1.1,5,5.1c0,6.9,0,13.8,0,20.7c0,3.3-1.3,4.6-4.6,4.6c-6,0-12,0-18.3,0v17.8
	c0,4-1.1,5.1-5.1,5.1H50.5c-3.4,0-4.7-1.3-4.7-4.8c0-5.9,0-11.9,0-18.1H30.7c-7.7,0-7.8-0.1-7.8-7.9c0-6,0-12.1,0-18.1
	c0-3.2,1.3-4.5,4.5-4.5c6,0,12,0,18.3,0c0-0.9,0.1-1.6,0.1-2.4c0-5.4,0-10.8,0-16.2c0-2.9,1.4-4.3,4.2-4.3c7.4,0,14.8,0,22.2,0
	c2.7,0,4.1,1.4,4.1,4.1C76.3,140,76.3,146.1,76.3,152.6z M91.4,175.5v-15.3c-6.2,0-12.3,0-18.3,0c-3,0-4.4-1.4-4.4-4.4
	c0-5.4,0-10.8,0-16.2v-2.2H53.4V155c0,4.2-1.1,5.3-5.4,5.3H30.7v15.3c6.3,0,12.4,0,18.5,0c2.9,0,4.2,1.4,4.3,4.2c0,2.2,0,4.4,0,6.7
	v11.8h15.3c0-6.1,0-12.1,0-18c0-3.4,1.3-4.7,4.8-4.7L91.4,175.5z"/>
<path class="st0" d="M79.9,87.7h-7.3v-7.4h7.3V87.7z"/>
<path class="st0" d="M110.4,87.7h-7.3v-7.4h7.3V87.7z"/>
<path class="st0" d="M133.6,87.6v-7.3h7.4v7.3H133.6z"/>
<path class="st0" d="M171.5,80.3v7.3h-7.4v-7.3H171.5z"/>
<path class="st0" d="M202.1,80.3v7.3h-7.4v-7.3H202.1z"/>
<path class="st0" d="M103.2,110.7h7.3v7.4h-7.3L103.2,110.7z"/>
<path class="st0" d="M133.7,110.7h7.2v7.4h-7.2V110.7z"/>
<path class="st0" d="M164.2,110.8h7.3v7.4h-7.3L164.2,110.8z"/>
<path class="st0" d="M194.6,118.1v-7.3h7.4v7.3L194.6,118.1z"/>
<path class="st0" d="M141,148.7h-7.3v-7.4h7.3L141,148.7z"/>
<path class="st0" d="M164.2,141.2h7.2v7.4h-7.2L164.2,141.2z"/>
</svg>
