<?xml version="1.0" encoding="utf-8"?>
<!-- Generator: Adobe Illustrator 26.0.0, SVG Export Plug-In . SVG Version: 6.00 Build 0)  -->
<svg version="1.1" id="Layer_1" xmlns="http://www.w3.org/2000/svg" xmlns:xlink="http://www.w3.org/1999/xlink" x="0px" y="0px"
	 viewBox="0 0 226 225.9" style="enable-background:new 0 0 226 225.9;" xml:space="preserve">
<style type="text/css">
	.st0{fill:#FFFFFF;}
</style>
<path class="st0" d="M29.3,65.4c0-9.5,0-18.6,0-27.7c0-6,2.5-8.5,8.6-8.5c14.7,0,29.5,0,44.2,0h5.4c-0.6-9.8,2.3-17.9,9.9-23.9
	c5.1-4,11.5-5.8,17.9-5.3c13.5,0.8,22,11.2,23.5,28.8c1.1,0.1,2.3,0.3,3.4,0.3s2.1,0,3.6,0V11.9c7.7-1.3,15-2,21.9-4
	c5.5-1.5,10.4-4.8,15.7-7c1.4-0.6,3-0.7,4.4-0.3c6.1,2.5,12,6,18.3,7.8c6.2,1.8,12.8,2.2,19.8,3.3c0,5.6,0.2,11.8-0.1,17.9
	c-0.4,8.8-0.2,17.7-1.9,26.2c-2.8,14-11.2,24.8-23.3,32.3c-3.2,2-4,4.1-4,7.6c0.1,40.1,0.1,80.2,0.1,120.2c0,7.8-2.1,9.9-10,9.9
	H39.3c-7.9,0-10-2.1-10-9.9c0-22.8,0.1-45.5-0.1-68.3c-0.1-2.5-1.1-4.8-2.7-6.6c-5.3-5.8-11.2-11.2-16.6-16.9
	C-1,112.6-3.1,95.4,4.5,81.5C9.8,71.8,17.9,66.4,29.3,65.4z M53.9,79.6c11.2-12.9,23.6-18.5,38.1-10.8c15.9,8.5,19.1,23.4,16.4,40.6
	c9.2,0,18.1,0,27,0c2.3,0,3.8-0.5,5.1-2.6c2.6-4.2,7.8-5.9,12.4-4.2c5.7,2,8.7,8.3,6.7,14c-1.1,3.1-3.6,5.6-6.7,6.7
	c-4.6,1.8-9.8,0-12.4-4.2c-1.4-2.1-2.9-2.6-5.1-2.6c-6.8,0.1-13.7,0.4-20.5-0.1c-6.3-0.4-11.6,0.2-14.5,6.7
	c-0.4,0.7-0.9,1.2-1.5,1.7c-14.4,14.4-28.8,28.8-43.1,43.1c-0.3,0.3-0.7,0.5-1.1,0.6l-3.3-2.1v37.2h123.2v-54.6
	c-5.2,3.9-8.1,8.3-7.1,14.8c0.4,2.7,0.1,5.4,0.1,8.2v17.1h-43.4v-43.4h38.5c5.8,0,12.2-6.5,12.2-12.4c0-13.1-0.1-26.1,0.1-39.2
	c0.2-2.2-1-4.4-3-5.4c-11.9-7.2-19.9-17.6-24-30.9c-0.7-2.3-1.2-4.6-1.8-6.7H51.1c0,6.9-0.2,13.6,0.1,20.2
	C51.3,73.8,52.7,76.1,53.9,79.6z M59.1,125c2.3-4.7,4.3-8.2,5.9-11.9c1.2-2.8,2.8-4,6.1-3.9c8.6,0.3,17.3,0,25.9,0.2
	c2.8,0.1,4-1.1,4.1-3.5c0.1-4.7,0.8-9.5-0.2-13.9c-1.9-8.5-6.6-15.4-15.5-18.1s-16.4,0.3-22.6,6.9c-2.6,2.7-5.2,5.4-8.3,8.7
	c-3.8-4-6.9-7.5-10.3-10.7c-10-9.3-24.3-7.5-31.9,3.8c-8.1,11.9-6.6,27,4,37.8c12,12.3,24.3,24.3,36.4,36.4c0.6,0.6,1.3,1.1,2,1.5
	l-1-1.4l40.8-40.4c-6,0-12.5,0.2-19-0.1c-3.2-0.1-4.8,1-6.2,3.8c-3.7,7.8-7.7,15.5-12,24.1c-3.7-10.8-7-20.7-10.6-31.3
	c-1.4,3.3-2.3,5.9-3.5,8.3c-0.5,0.9-1.4,2.3-2.2,2.3c-4,0.2-8,0.1-11.9,0.1v-7.5c7.7,2.7,9.5-2.5,11.4-7.9c2-5.5,4.3-10.9,6.8-17.2
	L59.1,125z M182.1,94.5v116.5H43.8c0-16.2-0.3-31.9,0.1-47.7c0.2-5.9-3.3-8.3-7.1-11.4v66.4h152.5V94.5L182.1,94.5z M153.2,18.4
	c0,9.1-0.6,17.8,0.1,26.4c1.5,19.3,11.2,33.3,29.1,41c2.2,0.8,4.6,0.8,6.8,0c14.4-5.9,24.5-16.3,27.5-31.6
	c2.3-11.6,1.9-23.7,2.8-35.8c-12.1-1.1-22.5-4-32.1-9.5c-1-0.4-2.2-0.4-3.2,0.1C174.6,14.3,164.1,17.5,153.2,18.4z M43.9,68.9V43.5
	h101.6v-6.7H36.7v29.3L43.9,68.9z M160.1,182.1V165c-3.7,4.1-7,7.6-10.1,11.1l-13.5-13.7l5-5.4l7.2,9.4l11.7-13.1h-28.8v28.8
	L160.1,182.1z M131.2,29c0.5-8.7-2.2-15.4-9.7-19.5c-6.6-3.6-13.2-3-19.2,1.5s-8,10.6-7.3,17.8h7c0.5-9.3,3.7-13.9,10-14.1
	c2.5,0,6.1,0.5,7.5,2.2c2.6,3.3,4.1,7.5,6.3,12L131.2,29z M117.8,29c-1.4-2.8-2-4.9-3.3-6.4c-0.4-0.5-3.1-0.3-3.5,0.3
	c-1,1.7-1.3,3.8-2,6.1L117.8,29z M154.4,113.3c-2.1-1.8-3.5-3.8-4.6-3.6c-1.5,0.2-2.6,2.1-4,3.3c1.1,1.2,2.2,3.2,3.5,3.3
	S152.1,114.8,154.4,113.3L154.4,113.3z"/>
<path class="st0" d="M116.9,65.3h21.4v-6.7h-21.4V65.3z M116.9,79.8h21.4v-6.7h-21.4V79.8z M117,87.7v6.7h21.3v-6.7H117z
	 M80.4,189.2h6.8v-6.7h-6.8V189.2z M101.9,182.4h-6.8v6.7h6.8L101.9,182.4z M109.7,182.4v6.7h6.7v-6.7L109.7,182.4z"/>
<path class="st0" d="M116.9,65.3v-6.7h21.4v6.7H116.9z"/>
<path class="st0" d="M116.9,79.8v-6.7h21.4v6.7L116.9,79.8z"/>
<path class="st0" d="M117,87.7h21.3v6.7H117V87.7z"/>
<path class="st0" d="M80.4,189.2v-6.7h6.8v6.7L80.4,189.2z"/>
<path class="st0" d="M101.9,182.4v6.7h-6.8v-6.7L101.9,182.4z"/>
<path class="st0" d="M109.7,182.4h6.7v6.7h-6.7L109.7,182.4z"/>
<path class="st0" d="M197.1,58.6c-1.3,14.4-1.3,14.4-13.4,14.3c-7.2-0.1-8.1-1.4-8.8-13.2c-4.5-1.5-9.8-1.8-12.7-4.6
	c-2.2-2.1-1.8-7.4-1.6-11.2c0.5-9.6,8.4-6.9,14-7.6c2.1-14.6,2.1-14.6,13.8-14.4c6.7,0.1,7.3,1.1,8.7,13.3c4.4,1.4,9.6,1.6,12.4,4.3
	c2.2,2.1,1.8,7.3,1.8,11.1C211.4,56.6,209.6,57.5,197.1,58.6z M167.7,51h14.7v14.4h7.2V50.8h14.2v-7.2h-14.5V29.4h-7.2v14.5h-14.4
	L167.7,51z"/>
</svg>
