<svg id="Layer_1" data-name="Layer 1" xmlns="http://www.w3.org/2000/svg" viewBox="0 0 226.71 226.88"><defs><style>.cls-1{fill:#fff;}</style></defs><path class="cls-1" d="M46.54,105.67V24.12c0-4.33,1.09-5.41,5.45-5.41H177.23c4.33,0,5.42,1.1,5.43,5.44q0,4.49,0,9a3.58,3.58,0,0,0,.23.7h9.75c3.88,0,5.1,1.22,5.1,5.06q0,26.1,0,52.22v3.22h2.53c6.54,0,13.08,0,19.61,0,12,.06,21.07,7.77,22.92,19.6a14.76,14.76,0,0,1-.4,6q-14.44,52.67-29,105.29a39.24,39.24,0,0,0-.83,4.16,18.78,18.78,0,0,1-18.9,16.15c-14.41.06-28.83,0-43.24,0H36.81c-12.63,0-20.52-7.86-20.52-20.45v-99c0-12.61,7.86-20.45,20.5-20.46ZM114.36,238q39,0,78,0c8.55,0,13-4.41,13-12.88V145c0-8.4-4.45-12.88-12.79-12.88q-45.6,0-91.2,0a7.41,7.41,0,0,1-5.85-2.37Q88,122.09,80.29,114.62a5.19,5.19,0,0,0-3.24-1.33c-13.55-.08-27.09-.06-40.64-.05-8,0-12.55,4.58-12.56,12.63v99.48c0,8.16,4.54,12.66,12.77,12.66Q75.49,238,114.36,238Zm60.57-113.43V26.46H54.23v79.21h2.68c7.48,0,15,0,22.45,0a6.16,6.16,0,0,1,4.8,2c5,5.12,10.16,10.12,15.16,15.25a5.19,5.19,0,0,0,4.11,1.72q34.48-.09,69,0Zm22.91.28c10.7,3.6,15.07,9.67,15.07,20.78v51.51a1.19,1.19,0,0,0,.65-.83q10.89-39.42,21.75-78.86a6.68,6.68,0,0,0,.09-2.78,15,15,0,0,0-15-12.77c-6.93-.06-13.86,0-20.79,0a17.69,17.69,0,0,0-1.77.18Zm-15-83.36v83h7.27v-83Z" transform="translate(-16.29 -18.71)"/><path class="cls-1" d="M95.69,166.17c0-6.17,0-12,0-17.81,0-3.57,1.28-4.86,4.8-4.87q14.06,0,28.11,0c3.66,0,4.89,1.28,4.89,5,0,5.8,0,11.61,0,17.65h17.15c4.48,0,5.53,1.06,5.53,5.58q0,13.69,0,27.4c0,3.54-1.3,4.82-4.86,4.83-5.82,0-11.64,0-17.82,0v2.34c0,5.28,0,10.55,0,15.83,0,3.1-1.39,4.5-4.46,4.51q-14.4,0-28.81,0c-3.19,0-4.52-1.4-4.53-4.68,0-5.89,0-11.79,0-18H87.15c-3.23,0-6.45,0-9.68,0-3.07,0-4.45-1.41-4.45-4.52q0-14.4,0-28.82c0-3.08,1.39-4.44,4.49-4.46C83.48,166.15,89.45,166.17,95.69,166.17Zm7.57,52.77h22.53a3.8,3.8,0,0,0,.13-.62q0-6.49,0-13c0-8.92,0-8.92,8.8-8.92,4,0,8,0,12,0,.59,0,1.19-.11,1.73-.16V173.73H137.82c-12.93,0-11.91,1.06-11.88-11.75,0-3.59,0-7.18,0-10.78H103.26v13.6c0,8.92,0,8.92-8.8,8.92h-12c-.6,0-1.19.12-1.72.17v22.51c4.51,0,8.9.06,13.29,0,9.2-.16,9.45,0,9.28,9.16C103.19,210,103.26,214.37,103.26,218.94Z" transform="translate(-16.29 -18.71)"/><path class="cls-1" d="M69.23,94.28H61.42c.28-5,.08-10.07,1-14.92.83-4.51,5.51-7.53,10.21-7.7,1.41,0,2.84.06,4.25,0a3.82,3.82,0,0,0,2.91-6.18,15.2,15.2,0,0,1-3-9.5c.09-3.38-.16-6.83.44-10.11A14.83,14.83,0,0,1,93.3,33.88,15.15,15.15,0,0,1,107,48.56c.08,2.67,0,5.35,0,8a17.52,17.52,0,0,1-2.87,8.85,5,5,0,0,0-.31,4c.48,1,2.08,1.81,3.32,2.07,2.06.41,4.27,0,6.32.49A10.71,10.71,0,0,1,122,81.59c.3,4.14.06,8.31.06,12.6H114.6V84.7c0-4.38-1.09-5.64-5.37-5.46-6.21.26-10.69-2.08-13-7.84H87.66a9.08,9.08,0,0,0-.49.89A11.32,11.32,0,0,1,76.3,79.21c-6.67.06-7.07.47-7.07,7.1ZM84.37,52.49c0,1.5-.08,3,0,4.49a7.6,7.6,0,0,0,7.47,7.09,7.5,7.5,0,0,0,7.57-7,79.63,79.63,0,0,0,0-8.74,7.54,7.54,0,0,0-15,.11C84.29,49.81,84.37,51.16,84.37,52.49Z" transform="translate(-16.29 -18.71)"/><path class="cls-1" d="M148.6,56.52c-4.72,0-9.45,0-14.17,0-3.38,0-4.69-1.34-4.7-4.75,0-4.48,0-9,0-13.46,0-3.08,1.4-4.45,4.51-4.46q14.41,0,28.83,0c3.07,0,4.44,1.4,4.46,4.51q0,6.84,0,13.7c0,3.07-1.41,4.44-4.51,4.46C158.21,56.54,153.41,56.52,148.6,56.52Zm11.21-7.67V41.58h-22.4v7.27Z" transform="translate(-16.29 -18.71)"/><path class="cls-1" d="M129.82,71.47V64.21h37.6v7.26Z" transform="translate(-16.29 -18.71)"/><path class="cls-1" d="M129.83,86.61V79.33h37.52v7.28Z" transform="translate(-16.29 -18.71)"/><path class="cls-1" d="M167.43,94.49v7.28H129.91V94.49Z" transform="translate(-16.29 -18.71)"/><path class="cls-1" d="M167.43,109.62v7.27H129.92v-7.27Z" transform="translate(-16.29 -18.71)"/></svg>